<?xml version="1.0" encoding="UTF-8" standalone="no"?>
<!DOCTYPE svg PUBLIC "-//W3C//DTD SVG 1.1//EN"
 "http://www.w3.org/Graphics/SVG/1.1/DTD/svg11.dtd">
<!-- Generated by graphviz version 2.36.0 (20140111.2315)
 -->
<!-- Title: %3 Pages: 1 -->
<svg width="341pt" height="190pt"
 viewBox="0.00 0.00 341.00 190.00" xmlns="http://www.w3.org/2000/svg" xmlns:xlink="http://www.w3.org/1999/xlink">
<g id="graph0" class="graph" transform="scale(1 1) rotate(0) translate(4 186)">
<title>%3</title>
<g id="clust1" class="cluster"><title>cluster_previous</title>
<polygon fill="none" stroke="black" points="2,-46 2,-174 89,-174 89,-46 2,-46"/>
<text text-anchor="middle" x="45.5" y="-158.8" font-family="Times,serif" font-size="14.00">Current state</text>
</g>
<g id="clust2" class="cluster"><title>cluster_reducer</title>
<polygon fill="none" stroke="black" points="112,-46 112,-174 231,-174 231,-46 112,-46"/>
<text text-anchor="middle" x="171.5" y="-158.8" font-family="Times,serif" font-size="14.00">Combined reducer</text>
</g>
<g id="clust3" class="cluster"><title>cluster_updated</title>
<polygon fill="none" stroke="black" points="251,-46 251,-174 325,-174 325,-46 251,-46"/>
<text text-anchor="middle" x="288" y="-158.8" font-family="Times,serif" font-size="14.00">New state</text>
</g>
<!-- part1old -->
<g id="node1" class="node"><title>part1old</title>
<ellipse fill="none" stroke="black" cx="45" cy="-126" rx="28.0565" ry="18"/>
<text text-anchor="middle" x="45" y="-121.8" font-family="Times,serif" font-size="14.00">part1</text>
</g>
<!-- part1Reducer -->
<g id="node3" class="node"><title>part1Reducer</title>
<polygon fill="none" stroke="black" points="216.908,-144 125.092,-144 125.092,-108 216.908,-108 216.908,-144"/>
<text text-anchor="middle" x="171" y="-121.8" font-family="Times,serif" font-size="14.00">part1Reducer</text>
</g>
<!-- part1old&#45;&gt;part1Reducer -->
<g id="edge1" class="edge"><title>part1old&#45;&gt;part1Reducer</title>
<path fill="none" stroke="black" d="M73.5196,-126C85.6916,-126 100.463,-126 114.751,-126"/>
<polygon fill="black" stroke="black" points="115.025,-129.5 125.025,-126 115.025,-122.5 115.025,-129.5"/>
</g>
<!-- part2old -->
<g id="node2" class="node"><title>part2old</title>
<ellipse fill="none" stroke="black" cx="45" cy="-72" rx="28.0565" ry="18"/>
<text text-anchor="middle" x="45" y="-67.8" font-family="Times,serif" font-size="14.00">part2</text>
</g>
<!-- part2Reducer -->
<g id="node4" class="node"><title>part2Reducer</title>
<polygon fill="none" stroke="black" points="216.908,-90 125.092,-90 125.092,-54 216.908,-54 216.908,-90"/>
<text text-anchor="middle" x="171" y="-67.8" font-family="Times,serif" font-size="14.00">part2Reducer</text>
</g>
<!-- part2old&#45;&gt;part2Reducer -->
<g id="edge3" class="edge"><title>part2old&#45;&gt;part2Reducer</title>
<path fill="none" stroke="black" d="M73.5196,-72C85.6916,-72 100.463,-72 114.751,-72"/>
<polygon fill="black" stroke="black" points="115.025,-75.5001 125.025,-72 115.025,-68.5001 115.025,-75.5001"/>
</g>
<!-- part1new -->
<g id="node5" class="node"><title>part1new</title>
<ellipse fill="none" stroke="black" cx="288" cy="-126" rx="28.0565" ry="18"/>
<text text-anchor="middle" x="288" y="-121.8" font-family="Times,serif" font-size="14.00">part1</text>
</g>
<!-- part1Reducer&#45;&gt;part1new -->
<g id="edge2" class="edge"><title>part1Reducer&#45;&gt;part1new</title>
<path fill="none" stroke="black" d="M216.791,-126C227.576,-126 238.988,-126 249.406,-126"/>
<polygon fill="black" stroke="black" points="249.432,-129.5 259.432,-126 249.432,-122.5 249.432,-129.5"/>
</g>
<!-- part2new -->
<g id="node6" class="node"><title>part2new</title>
<ellipse fill="none" stroke="black" cx="288" cy="-72" rx="28.0565" ry="18"/>
<text text-anchor="middle" x="288" y="-67.8" font-family="Times,serif" font-size="14.00">part2</text>
</g>
<!-- part2Reducer&#45;&gt;part2new -->
<g id="edge4" class="edge"><title>part2Reducer&#45;&gt;part2new</title>
<path fill="none" stroke="black" d="M216.791,-72C227.576,-72 238.988,-72 249.406,-72"/>
<polygon fill="black" stroke="black" points="249.432,-75.5001 259.432,-72 249.432,-68.5001 249.432,-75.5001"/>
</g>
<!-- action -->
<g id="node7" class="node"><title>action</title>
<ellipse fill="none" stroke="black" cx="45" cy="-18" rx="31.9306" ry="18"/>
<text text-anchor="middle" x="45" y="-13.8" font-family="Times,serif" font-size="14.00">action</text>
</g>
<!-- action&#45;&gt;part1Reducer -->
<g id="edge5" class="edge"><title>action&#45;&gt;part1Reducer</title>
<path fill="none" stroke="black" d="M71.2694,-28.3985C77.6891,-31.9671 84.1374,-36.4851 89,-42 107.067,-62.4904 93.1935,-79.1862 112,-99 113.553,-100.636 115.225,-102.183 116.987,-103.644"/>
<polygon fill="black" stroke="black" points="115.029,-106.546 125.2,-109.512 119.098,-100.851 115.029,-106.546"/>
</g>
<!-- action&#45;&gt;part2Reducer -->
<g id="edge6" class="edge"><title>action&#45;&gt;part2Reducer</title>
<path fill="none" stroke="black" d="M70.7952,-28.7979C84.7494,-34.8747 102.694,-42.6892 119.476,-49.9974"/>
<polygon fill="black" stroke="black" points="118.081,-53.2074 128.647,-53.9912 120.876,-46.7896 118.081,-53.2074"/>
</g>
</g>
</svg>
