<?xml version="1.0" encoding="UTF-8" standalone="no"?>
<!DOCTYPE svg PUBLIC "-//W3C//DTD SVG 1.1//EN"
 "http://www.w3.org/Graphics/SVG/1.1/DTD/svg11.dtd">
<!-- Generated by graphviz version 2.36.0 (20140111.2315)
 -->
<!-- Title: %3 Pages: 1 -->
<svg width="404pt" height="170pt"
 viewBox="0.00 0.00 404.00 170.00" xmlns="http://www.w3.org/2000/svg" xmlns:xlink="http://www.w3.org/1999/xlink">
<g id="graph0" class="graph" transform="scale(1 1) rotate(0) translate(4 166)">
<title>%3</title>
<g id="clust1" class="cluster"><title>cluster_course</title>
<polygon fill="none" stroke="black" points="8,-8 8,-154 388,-154 388,-8 8,-8"/>
<text text-anchor="middle" x="198" y="-138.8" font-family="Times,serif" font-size="14.00">Course structure</text>
</g>
<!-- Chapter1 -->
<g id="node1" class="node"><title>Chapter1</title>
<ellipse fill="none" stroke="black" cx="59" cy="-34" rx="42.2841" ry="18"/>
<text text-anchor="middle" x="59" y="-29.8" font-family="Times,serif" font-size="14.00">Chapter1</text>
</g>
<!-- Chapter2 -->
<g id="node2" class="node"><title>Chapter2</title>
<ellipse fill="none" stroke="black" cx="162" cy="-34" rx="42.2841" ry="18"/>
<text text-anchor="middle" x="162" y="-29.8" font-family="Times,serif" font-size="14.00">Chapter2</text>
</g>
<!-- Chapter3 -->
<g id="node3" class="node"><title>Chapter3</title>
<ellipse fill="none" stroke="black" cx="265" cy="-34" rx="42.2841" ry="18"/>
<text text-anchor="middle" x="265" y="-29.8" font-family="Times,serif" font-size="14.00">Chapter3</text>
</g>
<!-- rest -->
<g id="node4" class="node"><title>rest</title>
<ellipse fill="none" stroke="black" cx="353" cy="-34" rx="27" ry="18"/>
<text text-anchor="middle" x="353" y="-29.8" font-family="Times,serif" font-size="14.00">...</text>
</g>
<!-- Index -->
<g id="node5" class="node"><title>Index</title>
<ellipse fill="none" stroke="black" cx="213" cy="-106" rx="30.3641" ry="18"/>
<text text-anchor="middle" x="213" y="-101.8" font-family="Times,serif" font-size="14.00">Index</text>
</g>
<!-- Index&#45;&gt;Chapter1 -->
<g id="edge1" class="edge"><title>Index&#45;&gt;Chapter1</title>
<path fill="none" stroke="black" d="M189.611,-94.3685C164.815,-83.0977 125.295,-65.1339 96.2136,-51.9153"/>
<polygon fill="black" stroke="black" points="97.3399,-48.5827 86.7879,-47.6309 94.4433,-54.9552 97.3399,-48.5827"/>
</g>
<!-- Index&#45;&gt;Chapter2 -->
<g id="edge2" class="edge"><title>Index&#45;&gt;Chapter2</title>
<path fill="none" stroke="black" d="M201.427,-89.1159C195.063,-80.3803 187.028,-69.3528 179.876,-59.5352"/>
<polygon fill="black" stroke="black" points="182.598,-57.3284 173.881,-51.307 176.941,-61.4504 182.598,-57.3284"/>
</g>
<!-- Index&#45;&gt;Chapter3 -->
<g id="edge3" class="edge"><title>Index&#45;&gt;Chapter3</title>
<path fill="none" stroke="black" d="M224.8,-89.1159C231.289,-80.3803 239.481,-69.3528 246.774,-59.5352"/>
<polygon fill="black" stroke="black" points="249.733,-61.4216 252.886,-51.307 244.113,-57.2473 249.733,-61.4216"/>
</g>
<!-- Index&#45;&gt;rest -->
<g id="edge4" class="edge"><title>Index&#45;&gt;rest</title>
<path fill="none" stroke="black" d="M235.493,-93.7533C259.175,-81.9127 296.59,-63.205 322.824,-50.0882"/>
<polygon fill="black" stroke="black" points="324.557,-53.1345 331.936,-45.5318 321.427,-46.8735 324.557,-53.1345"/>
</g>
</g>
</svg>
