<?xml version="1.0" encoding="UTF-8" standalone="no"?>
<!DOCTYPE svg PUBLIC "-//W3C//DTD SVG 1.1//EN"
 "http://www.w3.org/Graphics/SVG/1.1/DTD/svg11.dtd">
<!-- Generated by graphviz version 2.36.0 (20140111.2315)
 -->
<!-- Title: %3 Pages: 1 -->
<svg width="662pt" height="314pt"
 viewBox="0.00 0.00 662.00 314.00" xmlns="http://www.w3.org/2000/svg" xmlns:xlink="http://www.w3.org/1999/xlink">
<g id="graph0" class="graph" transform="scale(1 1) rotate(0) translate(4 310)">
<title>%3</title>
<g id="clust1" class="cluster"><title>cluster_course</title>
<polygon fill="none" stroke="black" points="8,-8 8,-298 646,-298 646,-8 8,-8"/>
<text text-anchor="middle" x="327" y="-282.8" font-family="Times,serif" font-size="14.00">Chapter structure</text>
</g>
<!-- page1_1 -->
<g id="node1" class="node"><title>page1_1</title>
<ellipse fill="none" stroke="black" cx="353" cy="-178" rx="40.0987" ry="18"/>
<text text-anchor="middle" x="353" y="-173.8" font-family="Times,serif" font-size="14.00">page1_1</text>
</g>
<!-- page1_2 -->
<g id="node2" class="node"><title>page1_2</title>
<ellipse fill="none" stroke="black" cx="353" cy="-106" rx="40.0987" ry="18"/>
<text text-anchor="middle" x="353" y="-101.8" font-family="Times,serif" font-size="14.00">page1_2</text>
</g>
<!-- page1_1&#45;&gt;page1_2 -->
<g id="edge8" class="edge"><title>page1_1&#45;&gt;page1_2</title>
<path fill="none" stroke="black" d="M353,-159.697C353,-151.983 353,-142.712 353,-134.112"/>
<polygon fill="black" stroke="black" points="356.5,-134.104 353,-124.104 349.5,-134.104 356.5,-134.104"/>
</g>
<!-- page1_3 -->
<!-- page1_2&#45;&gt;page1_3 -->
<g id="edge12" class="edge"><title>page1_2&#45;&gt;page1_3</title>
<path fill="none" stroke="black" stroke-dasharray="5,2" d="M353,-87.6966C353,-79.9827 353,-70.7125 353,-62.1124"/>
<polygon fill="black" stroke="black" points="356.5,-62.1043 353,-52.1043 349.5,-62.1044 356.5,-62.1043"/>
</g>
<!-- page2_1 -->
<g id="node4" class="node"><title>page2_1</title>
<ellipse fill="none" stroke="black" cx="453" cy="-178" rx="40.0987" ry="18"/>
<text text-anchor="middle" x="453" y="-173.8" font-family="Times,serif" font-size="14.00">page2_1</text>
</g>
<!-- page2_2 -->
<g id="node5" class="node"><title>page2_2</title>
<ellipse fill="none" stroke="black" cx="453" cy="-106" rx="40.0987" ry="18"/>
<text text-anchor="middle" x="453" y="-101.8" font-family="Times,serif" font-size="14.00">page2_2</text>
</g>
<!-- page2_1&#45;&gt;page2_2 -->
<g id="edge10" class="edge"><title>page2_1&#45;&gt;page2_2</title>
<path fill="none" stroke="black" d="M453,-159.697C453,-151.983 453,-142.712 453,-134.112"/>
<polygon fill="black" stroke="black" points="456.5,-134.104 453,-124.104 449.5,-134.104 456.5,-134.104"/>
</g>
<!-- page2_3 -->
<!-- page2_2&#45;&gt;page2_3 -->
<g id="edge11" class="edge"><title>page2_2&#45;&gt;page2_3</title>
<path fill="none" stroke="black" stroke-dasharray="5,2" d="M453,-87.6966C453,-79.9827 453,-70.7125 453,-62.1124"/>
<polygon fill="black" stroke="black" points="456.5,-62.1043 453,-52.1043 449.5,-62.1044 456.5,-62.1043"/>
</g>
<!-- Title -->
<g id="node6" class="node"><title>Title</title>
<ellipse fill="none" stroke="black" cx="43" cy="-250" rx="27" ry="18"/>
<text text-anchor="middle" x="43" y="-245.8" font-family="Times,serif" font-size="14.00">Title</text>
</g>
<!-- Motivation -->
<g id="node7" class="node"><title>Motivation</title>
<ellipse fill="none" stroke="black" cx="137" cy="-250" rx="49.1158" ry="18"/>
<text text-anchor="middle" x="137" y="-245.8" font-family="Times,serif" font-size="14.00">Motivation</text>
</g>
<!-- Title&#45;&gt;Motivation -->
<g id="edge1" class="edge"><title>Title&#45;&gt;Motivation</title>
<path fill="none" stroke="black" d="M70.1719,-250C72.6314,-250 75.091,-250 77.5505,-250"/>
<polygon fill="black" stroke="black" points="77.6621,-253.5 87.662,-250 77.662,-246.5 77.6621,-253.5"/>
</g>
<!-- Overview -->
<g id="node8" class="node"><title>Overview</title>
<ellipse fill="none" stroke="black" cx="249" cy="-250" rx="44.4635" ry="18"/>
<text text-anchor="middle" x="249" y="-245.8" font-family="Times,serif" font-size="14.00">Overview</text>
</g>
<!-- Motivation&#45;&gt;Overview -->
<g id="edge2" class="edge"><title>Motivation&#45;&gt;Overview</title>
<path fill="none" stroke="black" d="M186.438,-250C188.912,-250 191.386,-250 193.861,-250"/>
<polygon fill="black" stroke="black" points="194.033,-253.5 204.033,-250 194.033,-246.5 194.033,-253.5"/>
</g>
<!-- Section1 -->
<g id="node9" class="node"><title>Section1</title>
<ellipse fill="none" stroke="black" cx="353" cy="-250" rx="41.082" ry="18"/>
<text text-anchor="middle" x="353" y="-245.8" font-family="Times,serif" font-size="14.00">Section1</text>
</g>
<!-- Overview&#45;&gt;Section1 -->
<g id="edge3" class="edge"><title>Overview&#45;&gt;Section1</title>
<path fill="none" stroke="black" d="M293.688,-250C296.323,-250 298.958,-250 301.594,-250"/>
<polygon fill="black" stroke="black" points="301.759,-253.5 311.759,-250 301.759,-246.5 301.759,-253.5"/>
</g>
<!-- Section1&#45;&gt;page1_1 -->
<g id="edge7" class="edge"><title>Section1&#45;&gt;page1_1</title>
<path fill="none" stroke="black" d="M353,-231.697C353,-223.983 353,-214.712 353,-206.112"/>
<polygon fill="black" stroke="black" points="356.5,-206.104 353,-196.104 349.5,-206.104 356.5,-206.104"/>
</g>
<!-- Section2 -->
<g id="node10" class="node"><title>Section2</title>
<ellipse fill="none" stroke="black" cx="453" cy="-250" rx="41.082" ry="18"/>
<text text-anchor="middle" x="453" y="-245.8" font-family="Times,serif" font-size="14.00">Section2</text>
</g>
<!-- Section1&#45;&gt;Section2 -->
<g id="edge4" class="edge"><title>Section1&#45;&gt;Section2</title>
<path fill="none" stroke="black" d="M394.406,-250C396.852,-250 399.299,-250 401.745,-250"/>
<polygon fill="black" stroke="black" points="401.801,-253.5 411.801,-250 401.801,-246.5 401.801,-253.5"/>
</g>
<!-- Section2&#45;&gt;page2_1 -->
<g id="edge9" class="edge"><title>Section2&#45;&gt;page2_1</title>
<path fill="none" stroke="black" d="M453,-231.697C453,-223.983 453,-214.712 453,-206.112"/>
<polygon fill="black" stroke="black" points="456.5,-206.104 453,-196.104 449.5,-206.104 456.5,-206.104"/>
</g>
<!-- rest -->
<g id="node11" class="node"><title>rest</title>
<ellipse fill="none" stroke="black" stroke-dasharray="5,2" cx="539" cy="-250" rx="27" ry="18"/>
<text text-anchor="middle" x="539" y="-245.8" font-family="Times,serif" font-size="14.00">...</text>
</g>
<!-- Section2&#45;&gt;rest -->
<g id="edge5" class="edge"><title>Section2&#45;&gt;rest</title>
<path fill="none" stroke="black" d="M494.32,-250C496.775,-250 499.229,-250 501.683,-250"/>
<polygon fill="black" stroke="black" points="501.773,-253.5 511.773,-250 501.773,-246.5 501.773,-253.5"/>
</g>
<!-- End -->
<g id="node12" class="node"><title>End</title>
<ellipse fill="none" stroke="black" cx="611" cy="-250" rx="27" ry="18"/>
<text text-anchor="middle" x="611" y="-245.8" font-family="Times,serif" font-size="14.00">End</text>
</g>
<!-- rest&#45;&gt;End -->
<g id="edge6" class="edge"><title>rest&#45;&gt;End</title>
<path fill="none" stroke="black" d="M566,-250C568.615,-250 571.229,-250 573.844,-250"/>
<polygon fill="black" stroke="black" points="573.93,-253.5 583.93,-250 573.93,-246.5 573.93,-253.5"/>
</g>
</g>
</svg>
