<?xml version="1.0" encoding="UTF-8" standalone="no"?>
<!DOCTYPE svg PUBLIC "-//W3C//DTD SVG 1.1//EN"
 "http://www.w3.org/Graphics/SVG/1.1/DTD/svg11.dtd">
<!-- Generated by graphviz version 2.36.0 (20140111.2315)
 -->
<!-- Title: %3 Pages: 1 -->
<svg width="698pt" height="44pt"
 viewBox="0.00 0.00 698.00 44.00" xmlns="http://www.w3.org/2000/svg" xmlns:xlink="http://www.w3.org/1999/xlink">
<g id="graph0" class="graph" transform="scale(1 1) rotate(0) translate(4 40)">
<title>%3</title>
<!-- ReactFauxDOM -->
<g id="node1" class="node"><title>ReactFauxDOM</title>
<polygon fill="none" stroke="black" points="109.039,-36 0.960935,-36 0.960935,-0 109.039,-0 109.039,-36"/>
<text text-anchor="middle" x="55" y="-13.8" font-family="Times,serif" font-size="14.00">ReactFauxDOM</text>
</g>
<!-- faux -->
<g id="node4" class="node"><title>faux</title>
<ellipse fill="none" stroke="black" cx="173" cy="-18" rx="27" ry="18"/>
<text text-anchor="middle" x="173" y="-13.8" font-family="Times,serif" font-size="14.00">faux</text>
</g>
<!-- ReactFauxDOM&#45;&gt;faux -->
<g id="edge1" class="edge"><title>ReactFauxDOM&#45;&gt;faux</title>
<path fill="none" stroke="black" d="M109.247,-18C118.209,-18 127.323,-18 135.726,-18"/>
<polygon fill="black" stroke="black" points="135.924,-21.5001 145.924,-18 135.924,-14.5001 135.924,-21.5001"/>
</g>
<!-- DOMlib -->
<g id="node2" class="node"><title>DOMlib</title>
<polygon fill="none" stroke="black" points="299.95,-36 236.05,-36 236.05,-0 299.95,-0 299.95,-36"/>
<text text-anchor="middle" x="268" y="-13.8" font-family="Times,serif" font-size="14.00">DOMlib</text>
</g>
<!-- mutatedfaux -->
<g id="node5" class="node"><title>mutatedfaux</title>
<ellipse fill="none" stroke="black" cx="391" cy="-18" rx="54.1144" ry="18"/>
<text text-anchor="middle" x="391" y="-13.8" font-family="Times,serif" font-size="14.00">mutatedfaux</text>
</g>
<!-- DOMlib&#45;&gt;mutatedfaux -->
<g id="edge3" class="edge"><title>DOMlib&#45;&gt;mutatedfaux</title>
<path fill="none" stroke="black" d="M299.846,-18C308.074,-18 317.273,-18 326.564,-18"/>
<polygon fill="black" stroke="black" points="326.642,-21.5001 336.641,-18 326.641,-14.5001 326.642,-21.5001"/>
</g>
<!-- toReact -->
<g id="node3" class="node"><title>toReact</title>
<polygon fill="none" stroke="black" points="541.259,-36 482.741,-36 482.741,-0 541.259,-0 541.259,-36"/>
<text text-anchor="middle" x="512" y="-13.8" font-family="Times,serif" font-size="14.00">toReact</text>
</g>
<!-- VirtualDOM -->
<g id="node6" class="node"><title>VirtualDOM</title>
<ellipse fill="none" stroke="black" cx="634" cy="-18" rx="55.032" ry="18"/>
<text text-anchor="middle" x="634" y="-13.8" font-family="Times,serif" font-size="14.00">VirtualDOM</text>
</g>
<!-- toReact&#45;&gt;VirtualDOM -->
<g id="edge5" class="edge"><title>toReact&#45;&gt;VirtualDOM</title>
<path fill="none" stroke="black" d="M541.438,-18C549.582,-18 558.81,-18 568.196,-18"/>
<polygon fill="black" stroke="black" points="568.399,-21.5001 578.399,-18 568.399,-14.5001 568.399,-21.5001"/>
</g>
<!-- faux&#45;&gt;DOMlib -->
<g id="edge2" class="edge"><title>faux&#45;&gt;DOMlib</title>
<path fill="none" stroke="black" d="M200.401,-18C208.43,-18 217.448,-18 226.193,-18"/>
<polygon fill="black" stroke="black" points="226.258,-21.5001 236.258,-18 226.258,-14.5001 226.258,-21.5001"/>
</g>
<!-- mutatedfaux&#45;&gt;toReact -->
<g id="edge4" class="edge"><title>mutatedfaux&#45;&gt;toReact</title>
<path fill="none" stroke="black" d="M445.582,-18C454.617,-18 463.835,-18 472.393,-18"/>
<polygon fill="black" stroke="black" points="472.448,-21.5001 482.448,-18 472.448,-14.5001 472.448,-21.5001"/>
</g>
</g>
</svg>
