<?xml version="1.0" encoding="UTF-8" standalone="no"?>
<!DOCTYPE svg PUBLIC "-//W3C//DTD SVG 1.1//EN"
 "http://www.w3.org/Graphics/SVG/1.1/DTD/svg11.dtd">
<!-- Generated by graphviz version 2.36.0 (20140111.2315)
 -->
<!-- Title: %3 Pages: 1 -->
<svg width="348pt" height="74pt"
 viewBox="0.00 0.00 348.00 74.00" xmlns="http://www.w3.org/2000/svg" xmlns:xlink="http://www.w3.org/1999/xlink">
<g id="graph0" class="graph" transform="scale(1 1) rotate(0) translate(4 70)">
<title>%3</title>
<!-- data -->
<g id="node1" class="node"><title>data</title>
<ellipse fill="none" stroke="black" cx="27" cy="-18" rx="27" ry="18"/>
<text text-anchor="middle" x="27" y="-13.8" font-family="Times,serif" font-size="14.00">data</text>
</g>
<!-- view -->
<g id="node2" class="node"><title>view</title>
<ellipse fill="none" stroke="black" cx="172" cy="-48" rx="27.0958" ry="18"/>
<text text-anchor="middle" x="172" y="-43.8" font-family="Times,serif" font-size="14.00">view</text>
</g>
<!-- data&#45;&gt;view -->
<g id="edge2" class="edge"><title>data&#45;&gt;view</title>
<path fill="none" stroke="black" d="M52.9087,-23.2256C75.8364,-28.0356 110.085,-35.2207 135.804,-40.6163"/>
<polygon fill="black" stroke="black" points="135.391,-44.1058 145.897,-42.7336 136.829,-37.2549 135.391,-44.1058"/>
<text text-anchor="middle" x="99" y="-40.8" font-family="Times,serif" font-size="14.00">pushed to</text>
</g>
<!-- events -->
<g id="node3" class="node"><title>events</title>
<ellipse fill="none" stroke="black" cx="307" cy="-18" rx="32.8994" ry="18"/>
<text text-anchor="middle" x="307" y="-13.8" font-family="Times,serif" font-size="14.00">events</text>
</g>
<!-- view&#45;&gt;events -->
<g id="edge3" class="edge"><title>view&#45;&gt;events</title>
<path fill="none" stroke="black" d="M198.016,-42.3572C217.331,-38.0004 244.421,-31.8901 266.634,-26.8795"/>
<polygon fill="black" stroke="black" points="267.467,-30.2796 276.452,-24.665 265.927,-23.4512 267.467,-30.2796"/>
<text text-anchor="middle" x="237" y="-39.8" font-family="Times,serif" font-size="14.00">invites</text>
</g>
<!-- events&#45;&gt;data -->
<g id="edge1" class="edge"><title>events&#45;&gt;data</title>
<path fill="none" stroke="black" d="M274.99,-13.9283C253.891,-11.3681 225.313,-8.30991 200,-7 152.88,-4.56162 98.549,-9.30073 63.7689,-13.3003"/>
<polygon fill="black" stroke="black" points="63.1476,-9.8495 53.6324,-14.509 63.9765,-16.8003 63.1476,-9.8495"/>
<text text-anchor="middle" x="172" y="-9.8" font-family="Times,serif" font-size="14.00">update</text>
</g>
</g>
</svg>
