<?xml version="1.0" encoding="UTF-8" standalone="no"?>
<!DOCTYPE svg PUBLIC "-//W3C//DTD SVG 1.1//EN"
 "http://www.w3.org/Graphics/SVG/1.1/DTD/svg11.dtd">
<!-- Generated by graphviz version 2.36.0 (20140111.2315)
 -->
<!-- Title: %3 Pages: 1 -->
<svg width="390pt" height="180pt"
 viewBox="0.00 0.00 390.00 180.00" xmlns="http://www.w3.org/2000/svg" xmlns:xlink="http://www.w3.org/1999/xlink">
<g id="graph0" class="graph" transform="scale(1 1) rotate(0) translate(4 176)">
<title>%3</title>
<!-- div -->
<g id="node1" class="node"><title>div</title>
<ellipse fill="none" stroke="black" cx="56" cy="-86" rx="55.3915" ry="25.4118"/>
<text text-anchor="middle" x="56" y="-88.8" font-family="Times,serif" font-size="14.00">&lt;div&gt;</text>
<text text-anchor="middle" x="56" y="-74.8" font-family="Times,serif" font-size="14.00">{foo: &#39;bar&#39;}</text>
</g>
<!-- hello -->
<g id="node2" class="node"><title>hello</title>
<ellipse fill="none" stroke="black" cx="196" cy="-147" rx="47.7014" ry="25.4118"/>
<text text-anchor="middle" x="196" y="-149.8" font-family="Times,serif" font-size="14.00">textNode</text>
<text text-anchor="middle" x="196" y="-135.8" font-family="Times,serif" font-size="14.00">&#39;Hello&#39;</text>
</g>
<!-- div&#45;&gt;hello -->
<g id="edge1" class="edge"><title>div&#45;&gt;hello</title>
<path fill="none" stroke="black" d="M96.5453,-103.48C113.077,-110.788 132.385,-119.322 149.502,-126.889"/>
<polygon fill="black" stroke="black" points="148.193,-130.137 158.755,-130.979 151.024,-123.734 148.193,-130.137"/>
</g>
<!-- strong -->
<g id="node3" class="node"><title>strong</title>
<ellipse fill="none" stroke="black" cx="196" cy="-86" rx="42.3814" ry="18"/>
<text text-anchor="middle" x="196" y="-81.8" font-family="Times,serif" font-size="14.00">&lt;strong&gt;</text>
</g>
<!-- div&#45;&gt;strong -->
<g id="edge2" class="edge"><title>div&#45;&gt;strong</title>
<path fill="none" stroke="black" d="M111.541,-86C122.051,-86 133.029,-86 143.441,-86"/>
<polygon fill="black" stroke="black" points="143.625,-89.5001 153.625,-86 143.625,-82.5001 143.625,-89.5001"/>
</g>
<!-- exc -->
<g id="node5" class="node"><title>exc</title>
<ellipse fill="none" stroke="black" cx="196" cy="-25" rx="47.7014" ry="25.4118"/>
<text text-anchor="middle" x="196" y="-27.8" font-family="Times,serif" font-size="14.00">textNode</text>
<text text-anchor="middle" x="196" y="-13.8" font-family="Times,serif" font-size="14.00">&#39;!&#39;</text>
</g>
<!-- div&#45;&gt;exc -->
<g id="edge4" class="edge"><title>div&#45;&gt;exc</title>
<path fill="none" stroke="black" d="M96.5453,-68.5198C113.077,-61.2124 132.385,-52.6775 149.502,-45.1113"/>
<polygon fill="black" stroke="black" points="151.024,-48.2656 158.755,-41.0214 148.193,-41.8632 151.024,-48.2656"/>
</g>
<!-- world -->
<g id="node4" class="node"><title>world</title>
<ellipse fill="none" stroke="black" cx="331" cy="-86" rx="51.346" ry="25.4118"/>
<text text-anchor="middle" x="331" y="-88.8" font-family="Times,serif" font-size="14.00">textNode</text>
<text text-anchor="middle" x="331" y="-74.8" font-family="Times,serif" font-size="14.00">&#39;WORLD&#39;</text>
</g>
<!-- strong&#45;&gt;world -->
<g id="edge3" class="edge"><title>strong&#45;&gt;world</title>
<path fill="none" stroke="black" d="M238.353,-86C248.292,-86 259.111,-86 269.716,-86"/>
<polygon fill="black" stroke="black" points="269.784,-89.5001 279.784,-86 269.784,-82.5001 269.784,-89.5001"/>
</g>
</g>
</svg>
