<?xml version="1.0" encoding="UTF-8" standalone="no"?>
<!DOCTYPE svg PUBLIC "-//W3C//DTD SVG 1.1//EN"
 "http://www.w3.org/Graphics/SVG/1.1/DTD/svg11.dtd">
<!-- Generated by graphviz version 2.36.0 (20140111.2315)
 -->
<!-- Title: %3 Pages: 1 -->
<svg width="288pt" height="54pt"
 viewBox="0.00 0.00 288.00 54.44" xmlns="http://www.w3.org/2000/svg" xmlns:xlink="http://www.w3.org/1999/xlink">
<g id="graph0" class="graph" transform="scale(1 1) rotate(0) translate(4 50.4439)">
<title>%3</title>
<!-- JS -->
<g id="node1" class="node"><title>JS</title>
<ellipse fill="none" stroke="black" cx="27" cy="-20.4439" rx="27" ry="18"/>
<text text-anchor="middle" x="27" y="-16.2439" font-family="Times,serif" font-size="14.00">JS</text>
</g>
<!-- JSX -->
<g id="node2" class="node"><title>JSX</title>
<ellipse fill="none" stroke="black" cx="155" cy="-20.4439" rx="27" ry="18"/>
<text text-anchor="middle" x="155" y="-16.2439" font-family="Times,serif" font-size="14.00">JSX</text>
</g>
<!-- JS&#45;&gt;JSX -->
<g id="edge1" class="edge"><title>JS&#45;&gt;JSX</title>
<path fill="none" stroke="black" d="M52.0069,-27.5737C58.4415,-29.1737 65.4354,-30.6358 72,-31.4439 88.7623,-33.5075 93.2377,-33.5075 110,-31.4439 113.282,-31.0399 116.672,-30.4723 120.045,-29.8058"/>
<polygon fill="black" stroke="black" points="121.002,-33.1782 129.993,-27.5737 119.469,-26.348 121.002,-33.1782"/>
<text text-anchor="middle" x="91" y="-35.2439" font-family="Times,serif" font-size="14.00">&lt;tag&gt;</text>
</g>
<!-- JS&#45;&gt;JSX -->
<g id="edge2" class="edge"><title>JS&#45;&gt;JSX</title>
<path fill="none" stroke="none" d="M54.1073,-20.4439C72.5221,-20.4439 97.4299,-20.4439 117.767,-20.4439"/>
<polygon fill="none" stroke="none" points="117.926,-23.944 127.926,-20.4439 117.926,-16.944 117.926,-23.944"/>
</g>
<!-- JSX&#45;&gt;JS -->
<g id="edge3" class="edge"><title>JSX&#45;&gt;JS</title>
<path fill="none" stroke="black" d="M133.032,-9.93072C125.905,-6.88608 117.774,-3.97265 110,-2.44393 93.4284,0.814643 88.5716,0.814643 72,-2.44393 67.5054,-3.32772 62.8917,-4.67432 58.4216,-6.24153"/>
<polygon fill="black" stroke="black" points="57.011,-3.03485 48.9675,-9.93072 59.5557,-9.55594 57.011,-3.03485"/>
<text text-anchor="middle" x="91" y="-5.24393" font-family="Times,serif" font-size="14.00">&lt;/tag&gt;</text>
</g>
<!-- third -->
<g id="node3" class="node"><title>third</title>
<ellipse fill="none" stroke="black" cx="253" cy="-20.4439" rx="27" ry="18"/>
<text text-anchor="middle" x="253" y="-16.2439" font-family="Times,serif" font-size="14.00">JS</text>
</g>
<!-- JSX&#45;&gt;third -->
<g id="edge4" class="edge"><title>JSX&#45;&gt;third</title>
<path fill="none" stroke="black" d="M179.153,-28.7128C188.107,-31.0209 198.475,-32.6165 208,-31.4439 211.282,-31.0399 214.672,-30.4723 218.045,-29.8058"/>
<polygon fill="black" stroke="black" points="219.002,-33.1782 227.993,-27.5737 217.469,-26.348 219.002,-33.1782"/>
<text text-anchor="middle" x="204" y="-34.2439" font-family="Times,serif" font-size="14.00">{</text>
</g>
<!-- JSX&#45;&gt;third -->
<g id="edge5" class="edge"><title>JSX&#45;&gt;third</title>
<path fill="none" stroke="none" d="M182.232,-20.4439C192.498,-20.4439 204.448,-20.4439 215.527,-20.4439"/>
<polygon fill="none" stroke="none" points="215.799,-23.944 225.799,-20.4439 215.799,-16.944 215.799,-23.944"/>
</g>
<!-- third&#45;&gt;JSX -->
<g id="edge6" class="edge"><title>third&#45;&gt;JSX</title>
<path fill="none" stroke="black" d="M232.602,-8.49528C222.973,-3.92332 211.061,-0.268907 200,-2.44393 195.505,-3.32772 190.892,-4.67432 186.422,-6.24153"/>
<polygon fill="black" stroke="black" points="185.011,-3.03485 176.968,-9.93072 187.556,-9.55594 185.011,-3.03485"/>
<text text-anchor="middle" x="204" y="-5.24393" font-family="Times,serif" font-size="14.00">}</text>
</g>
</g>
</svg>
