<?xml version="1.0" encoding="UTF-8" standalone="no"?>
<!DOCTYPE svg PUBLIC "-//W3C//DTD SVG 1.1//EN"
 "http://www.w3.org/Graphics/SVG/1.1/DTD/svg11.dtd">
<!-- Generated by graphviz version 2.36.0 (20140111.2315)
 -->
<!-- Title: %3 Pages: 1 -->
<svg width="262pt" height="44pt"
 viewBox="0.00 0.00 262.00 44.00" xmlns="http://www.w3.org/2000/svg" xmlns:xlink="http://www.w3.org/1999/xlink">
<g id="graph0" class="graph" transform="scale(1 1) rotate(0) translate(4 40)">
<title>%3</title>
<!-- Transpiler -->
<g id="node1" class="node"><title>Transpiler</title>
<polygon fill="none" stroke="black" points="163.546,-36 90.4541,-36 90.4541,-0 163.546,-0 163.546,-36"/>
<text text-anchor="middle" x="127" y="-13.8" font-family="Times,serif" font-size="14.00">Transpiler</text>
</g>
<!-- JS -->
<g id="node3" class="node"><title>JS</title>
<ellipse fill="none" stroke="black" cx="227" cy="-18" rx="27" ry="18"/>
<text text-anchor="middle" x="227" y="-13.8" font-family="Times,serif" font-size="14.00">JS</text>
</g>
<!-- Transpiler&#45;&gt;JS -->
<g id="edge2" class="edge"><title>Transpiler&#45;&gt;JS</title>
<path fill="none" stroke="black" d="M163.657,-18C172.139,-18 181.199,-18 189.709,-18"/>
<polygon fill="black" stroke="black" points="189.741,-21.5001 199.741,-18 189.741,-14.5001 189.741,-21.5001"/>
</g>
<!-- JSX -->
<g id="node2" class="node"><title>JSX</title>
<ellipse fill="none" stroke="black" cx="27" cy="-18" rx="27" ry="18"/>
<text text-anchor="middle" x="27" y="-13.8" font-family="Times,serif" font-size="14.00">JSX</text>
</g>
<!-- JSX&#45;&gt;Transpiler -->
<g id="edge1" class="edge"><title>JSX&#45;&gt;Transpiler</title>
<path fill="none" stroke="black" d="M54.0049,-18C62.0801,-18 71.2328,-18 80.2389,-18"/>
<polygon fill="black" stroke="black" points="80.2797,-21.5001 90.2797,-18 80.2796,-14.5001 80.2797,-21.5001"/>
</g>
</g>
</svg>
