<?xml version="1.0" encoding="UTF-8" standalone="no"?>
<!DOCTYPE svg PUBLIC "-//W3C//DTD SVG 1.1//EN"
 "http://www.w3.org/Graphics/SVG/1.1/DTD/svg11.dtd">
<!-- Generated by graphviz version 2.36.0 (20140111.2315)
 -->
<!-- Title: %3 Pages: 1 -->
<svg width="710pt" height="116pt"
 viewBox="0.00 0.00 710.00 116.00" xmlns="http://www.w3.org/2000/svg" xmlns:xlink="http://www.w3.org/1999/xlink">
<g id="graph0" class="graph" transform="scale(1 1) rotate(0) translate(4 112)">
<title>%3</title>
<!-- React -->
<g id="node1" class="node"><title>React</title>
<ellipse fill="none" stroke="black" stroke-width="2" cx="236" cy="-90" rx="30.3576" ry="18"/>
<text text-anchor="middle" x="236" y="-85.8" font-family="Times,serif" font-size="14.00">React</text>
</g>
<!-- Recompose -->
<g id="node3" class="node"><title>Recompose</title>
<ellipse fill="none" stroke="black" cx="51" cy="-18" rx="51.0502" ry="18"/>
<text text-anchor="middle" x="51" y="-13.8" font-family="Times,serif" font-size="14.00">Recompose</text>
</g>
<!-- React&#45;&gt;Recompose -->
<g id="edge1" class="edge"><title>React&#45;&gt;Recompose</title>
<path fill="none" stroke="black" d="M211.05,-79.5595C181.082,-68.2204 130.316,-49.0115 93.9915,-35.267"/>
<polygon fill="black" stroke="black" points="95.216,-31.9882 84.6245,-31.7228 92.7387,-38.5353 95.216,-31.9882"/>
</g>
<!-- ReactRouter -->
<g id="node4" class="node"><title>ReactRouter</title>
<ellipse fill="none" stroke="black" cx="175" cy="-18" rx="53.9615" ry="18"/>
<text text-anchor="middle" x="175" y="-13.8" font-family="Times,serif" font-size="14.00">ReactRouter</text>
</g>
<!-- React&#45;&gt;ReactRouter -->
<g id="edge2" class="edge"><title>React&#45;&gt;ReactRouter</title>
<path fill="none" stroke="black" d="M222.764,-73.811C215.022,-64.9271 205.068,-53.5041 196.252,-43.3875"/>
<polygon fill="black" stroke="black" points="198.698,-40.8675 189.49,-35.6278 193.421,-45.4664 198.698,-40.8675"/>
</g>
<!-- ReactRedux -->
<g id="node5" class="node"><title>ReactRedux</title>
<ellipse fill="none" stroke="black" cx="420" cy="-18" rx="52.9911" ry="18"/>
<text text-anchor="middle" x="420" y="-13.8" font-family="Times,serif" font-size="14.00">ReactRedux</text>
</g>
<!-- React&#45;&gt;ReactRedux -->
<g id="edge4" class="edge"><title>React&#45;&gt;ReactRedux</title>
<path fill="none" stroke="black" d="M260.815,-79.5595C290.315,-68.3369 340.077,-49.4053 376.123,-35.6923"/>
<polygon fill="black" stroke="black" points="377.796,-38.8007 385.898,-31.9736 375.307,-32.2582 377.796,-38.8007"/>
</g>
<!-- ReactDOM -->
<g id="node6" class="node"><title>ReactDOM</title>
<ellipse fill="none" stroke="black" cx="298" cy="-18" rx="50.3124" ry="18"/>
<text text-anchor="middle" x="298" y="-13.8" font-family="Times,serif" font-size="14.00">ReactDOM</text>
</g>
<!-- React&#45;&gt;ReactDOM -->
<g id="edge5" class="edge"><title>React&#45;&gt;ReactDOM</title>
<path fill="none" stroke="black" d="M249.453,-73.811C257.322,-64.9271 267.439,-53.5041 276.4,-43.3875"/>
<polygon fill="black" stroke="black" points="279.262,-45.4344 283.272,-35.6278 274.022,-40.7931 279.262,-45.4344"/>
</g>
<!-- Redux -->
<g id="node2" class="node"><title>Redux</title>
<ellipse fill="none" stroke="black" stroke-width="2" cx="548" cy="-90" rx="33.2941" ry="18"/>
<text text-anchor="middle" x="548" y="-85.8" font-family="Times,serif" font-size="14.00">Redux</text>
</g>
<!-- Redux&#45;&gt;ReactRedux -->
<g id="edge3" class="edge"><title>Redux&#45;&gt;ReactRedux</title>
<path fill="none" stroke="black" d="M525.411,-76.6465C506.109,-66.0906 477.999,-50.7184 455.661,-38.5024"/>
<polygon fill="black" stroke="black" points="457.248,-35.381 446.795,-33.6536 453.89,-41.5226 457.248,-35.381"/>
</g>
<!-- ReduxThunk -->
<g id="node7" class="node"><title>ReduxThunk</title>
<ellipse fill="none" stroke="black" cx="548" cy="-18" rx="55.9282" ry="18"/>
<text text-anchor="middle" x="548" y="-13.8" font-family="Times,serif" font-size="14.00">ReduxThunk</text>
</g>
<!-- Redux&#45;&gt;ReduxThunk -->
<g id="edge6" class="edge"><title>Redux&#45;&gt;ReduxThunk</title>
<path fill="none" stroke="black" d="M548,-71.6966C548,-63.9827 548,-54.7125 548,-46.1124"/>
<polygon fill="black" stroke="black" points="551.5,-46.1043 548,-36.1043 544.5,-46.1044 551.5,-46.1043"/>
</g>
<!-- Reselect -->
<g id="node8" class="node"><title>Reselect</title>
<ellipse fill="none" stroke="black" cx="662" cy="-18" rx="40.0923" ry="18"/>
<text text-anchor="middle" x="662" y="-13.8" font-family="Times,serif" font-size="14.00">Reselect</text>
</g>
<!-- Redux&#45;&gt;Reselect -->
<g id="edge7" class="edge"><title>Redux&#45;&gt;Reselect</title>
<path fill="none" stroke="black" d="M569.175,-75.9976C586.485,-65.3687 611.208,-50.188 630.787,-38.1657"/>
<polygon fill="black" stroke="black" points="632.686,-41.1071 639.376,-32.8918 629.023,-35.1419 632.686,-41.1071"/>
</g>
</g>
</svg>
