<?xml version="1.0" encoding="UTF-8" standalone="no"?>
<!DOCTYPE svg PUBLIC "-//W3C//DTD SVG 1.1//EN"
 "http://www.w3.org/Graphics/SVG/1.1/DTD/svg11.dtd">
<!-- Generated by graphviz version 2.36.0 (20140111.2315)
 -->
<!-- Title: %3 Pages: 1 -->
<svg width="562pt" height="204pt"
 viewBox="0.00 0.00 562.00 204.00" xmlns="http://www.w3.org/2000/svg" xmlns:xlink="http://www.w3.org/1999/xlink">
<g id="graph0" class="graph" transform="scale(1 1) rotate(0) translate(4 200)">
<title>%3</title>
<!-- React -->
<g id="node1" class="node"><title>React</title>
<ellipse fill="none" stroke="black" stroke-width="2" cx="330" cy="-124" rx="30.4775" ry="18"/>
<text text-anchor="middle" x="330" y="-119.8" font-family="Times,serif" font-size="14.00">React</text>
</g>
<!-- ReactRouter -->
<g id="node3" class="node"><title>ReactRouter</title>
<ellipse fill="none" stroke="black" cx="499" cy="-178" rx="54.1144" ry="18"/>
<text text-anchor="middle" x="499" y="-173.8" font-family="Times,serif" font-size="14.00">ReactRouter</text>
</g>
<!-- React&#45;&gt;ReactRouter -->
<g id="edge1" class="edge"><title>React&#45;&gt;ReactRouter</title>
<path fill="none" stroke="black" d="M357.094,-132.438C381.844,-140.441 419.637,-152.661 449.854,-162.432"/>
<polygon fill="black" stroke="black" points="448.78,-165.763 459.372,-165.51 450.934,-159.103 448.78,-165.763"/>
</g>
<!-- ReactDOM -->
<g id="node6" class="node"><title>ReactDOM</title>
<ellipse fill="none" stroke="black" cx="499" cy="-124" rx="50.7483" ry="18"/>
<text text-anchor="middle" x="499" y="-119.8" font-family="Times,serif" font-size="14.00">ReactDOM</text>
</g>
<!-- React&#45;&gt;ReactDOM -->
<g id="edge6" class="edge"><title>React&#45;&gt;ReactDOM</title>
<path fill="none" stroke="black" d="M360.472,-124C381.799,-124 411.368,-124 437.624,-124"/>
<polygon fill="black" stroke="black" points="437.879,-127.5 447.879,-124 437.879,-120.5 437.879,-127.5"/>
</g>
<!-- Recompose -->
<g id="node7" class="node"><title>Recompose</title>
<ellipse fill="none" stroke="black" cx="499" cy="-70" rx="51.2329" ry="18"/>
<text text-anchor="middle" x="499" y="-65.8" font-family="Times,serif" font-size="14.00">Recompose</text>
</g>
<!-- React&#45;&gt;Recompose -->
<g id="edge7" class="edge"><title>React&#45;&gt;Recompose</title>
<path fill="none" stroke="black" d="M357.094,-115.562C382.175,-107.452 420.65,-95.0112 451.062,-85.1774"/>
<polygon fill="black" stroke="black" points="452.188,-88.492 460.626,-82.085 450.034,-81.8316 452.188,-88.492"/>
</g>
<!-- Redux -->
<g id="node2" class="node"><title>Redux</title>
<ellipse fill="none" stroke="black" stroke-width="2" cx="33" cy="-99" rx="33.3925" ry="18"/>
<text text-anchor="middle" x="33" y="-94.8" font-family="Times,serif" font-size="14.00">Redux</text>
</g>
<!-- ReactRouterRedux -->
<g id="node4" class="node"><title>ReactRouterRedux</title>
<ellipse fill="none" stroke="black" cx="330" cy="-178" rx="77.2916" ry="18"/>
<text text-anchor="middle" x="330" y="-173.8" font-family="Times,serif" font-size="14.00">ReactRouterRedux</text>
</g>
<!-- Redux&#45;&gt;ReactRouterRedux -->
<g id="edge2" class="edge"><title>Redux&#45;&gt;ReactRouterRedux</title>
<path fill="none" stroke="black" d="M48.8215,-114.935C61.6004,-127.561 81.2282,-144.452 102,-153 146.304,-171.233 199.36,-177.824 243.034,-179.7"/>
<polygon fill="black" stroke="black" points="242.943,-183.199 253.061,-180.056 243.191,-176.203 242.943,-183.199"/>
</g>
<!-- ReactRedux -->
<g id="node5" class="node"><title>ReactRedux</title>
<ellipse fill="none" stroke="black" cx="159" cy="-126" rx="53.1539" ry="18"/>
<text text-anchor="middle" x="159" y="-121.8" font-family="Times,serif" font-size="14.00">ReactRedux</text>
</g>
<!-- Redux&#45;&gt;ReactRedux -->
<g id="edge4" class="edge"><title>Redux&#45;&gt;ReactRedux</title>
<path fill="none" stroke="black" d="M64.0169,-105.536C76.0137,-108.148 90.2105,-111.239 103.887,-114.217"/>
<polygon fill="black" stroke="black" points="103.199,-117.649 113.715,-116.357 104.688,-110.81 103.199,-117.649"/>
</g>
<!-- ReduxThunk -->
<g id="node8" class="node"><title>ReduxThunk</title>
<ellipse fill="none" stroke="black" cx="159" cy="-72" rx="56.07" ry="18"/>
<text text-anchor="middle" x="159" y="-67.8" font-family="Times,serif" font-size="14.00">ReduxThunk</text>
</g>
<!-- Redux&#45;&gt;ReduxThunk -->
<g id="edge8" class="edge"><title>Redux&#45;&gt;ReduxThunk</title>
<path fill="none" stroke="black" d="M64.0169,-92.4641C75.4403,-89.9767 88.8584,-87.055 101.923,-84.2104"/>
<polygon fill="black" stroke="black" points="102.779,-87.6061 111.805,-82.0586 101.289,-80.7664 102.779,-87.6061"/>
</g>
<!-- Reselect -->
<g id="node9" class="node"><title>Reselect</title>
<ellipse fill="none" stroke="black" cx="159" cy="-18" rx="40.123" ry="18"/>
<text text-anchor="middle" x="159" y="-13.8" font-family="Times,serif" font-size="14.00">Reselect</text>
</g>
<!-- Redux&#45;&gt;Reselect -->
<g id="edge9" class="edge"><title>Redux&#45;&gt;Reselect</title>
<path fill="none" stroke="black" d="M51.0982,-83.6597C64.393,-72.1789 83.6099,-56.5349 102,-45 107.775,-41.3779 114.108,-37.8997 120.374,-34.7149"/>
<polygon fill="black" stroke="black" points="121.992,-37.8195 129.432,-30.2759 118.912,-31.5338 121.992,-37.8195"/>
</g>
<!-- ReactRouterRedux&#45;&gt;ReactRouter -->
<g id="edge3" class="edge"><title>ReactRouterRedux&#45;&gt;ReactRouter</title>
<path fill="none" stroke="black" d="M407.657,-178C416.532,-178 425.51,-178 434.188,-178"/>
<polygon fill="black" stroke="black" points="434.212,-181.5 444.212,-178 434.212,-174.5 434.212,-181.5"/>
</g>
<!-- ReactRedux&#45;&gt;React -->
<g id="edge5" class="edge"><title>ReactRedux&#45;&gt;React</title>
<path fill="none" stroke="black" d="M212.546,-125.378C237.418,-125.084 266.621,-124.738 289.561,-124.467"/>
<polygon fill="black" stroke="black" points="289.665,-127.966 299.623,-124.348 289.582,-120.966 289.665,-127.966"/>
</g>
</g>
</svg>
