<?xml version="1.0" encoding="UTF-8" standalone="no"?>
<!DOCTYPE svg PUBLIC "-//W3C//DTD SVG 1.1//EN"
 "http://www.w3.org/Graphics/SVG/1.1/DTD/svg11.dtd">
<!-- Generated by graphviz version 2.36.0 (20140111.2315)
 -->
<!-- Title: %3 Pages: 1 -->
<svg width="497pt" height="188pt"
 viewBox="0.00 0.00 497.00 188.00" xmlns="http://www.w3.org/2000/svg" xmlns:xlink="http://www.w3.org/1999/xlink">
<g id="graph0" class="graph" transform="scale(1 1) rotate(0) translate(4 184)">
<title>%3</title>
<!-- Web -->
<g id="node1" class="node"><title>Web</title>
<ellipse fill="none" stroke="black" cx="195" cy="-162" rx="75.0895" ry="18"/>
<text text-anchor="middle" x="195" y="-157.8" font-family="Times,serif" font-size="14.00">The Web Platform</text>
</g>
<!-- HTML -->
<g id="node2" class="node"><title>HTML</title>
<ellipse fill="none" stroke="black" cx="35" cy="-90" rx="35.241" ry="18"/>
<text text-anchor="middle" x="35" y="-85.8" font-family="Times,serif" font-size="14.00">HTML</text>
</g>
<!-- Web&#45;&gt;HTML -->
<g id="edge1" class="edge"><title>Web&#45;&gt;HTML</title>
<path fill="none" stroke="black" d="M160.676,-145.983C134.016,-134.319 97.1779,-118.203 70.2787,-106.434"/>
<polygon fill="black" stroke="black" points="71.4199,-103.113 60.8554,-102.312 68.6141,-109.527 71.4199,-103.113"/>
</g>
<!-- CSS -->
<g id="node3" class="node"><title>CSS</title>
<ellipse fill="none" stroke="black" cx="118" cy="-90" rx="27" ry="18"/>
<text text-anchor="middle" x="118" y="-85.8" font-family="Times,serif" font-size="14.00">CSS</text>
</g>
<!-- Web&#45;&gt;CSS -->
<g id="edge2" class="edge"><title>Web&#45;&gt;CSS</title>
<path fill="none" stroke="black" d="M176.752,-144.411C165.984,-134.622 152.262,-122.147 140.787,-111.715"/>
<polygon fill="black" stroke="black" points="143.02,-109.015 133.266,-104.878 138.311,-114.195 143.02,-109.015"/>
</g>
<!-- JS -->
<g id="node4" class="node"><title>JS</title>
<ellipse fill="none" stroke="black" cx="195" cy="-90" rx="27" ry="18"/>
<text text-anchor="middle" x="195" y="-85.8" font-family="Times,serif" font-size="14.00">JS</text>
</g>
<!-- Web&#45;&gt;JS -->
<g id="edge3" class="edge"><title>Web&#45;&gt;JS</title>
<path fill="none" stroke="black" d="M195,-143.697C195,-135.983 195,-126.712 195,-118.112"/>
<polygon fill="black" stroke="black" points="198.5,-118.104 195,-108.104 191.5,-118.104 198.5,-118.104"/>
</g>
<!-- Java -->
<g id="node5" class="node"><title>Java</title>
<ellipse fill="none" stroke="black" stroke-dasharray="5,2" cx="286" cy="-90" rx="27" ry="18"/>
<text text-anchor="middle" x="286" y="-85.8" font-family="Times,serif" font-size="14.00">Java</text>
</g>
<!-- Web&#45;&gt;Java -->
<g id="edge4" class="edge"><title>Web&#45;&gt;Java</title>
<path fill="none" stroke="black" stroke-dasharray="5,2" d="M216.566,-144.411C229.797,-134.233 246.804,-121.151 260.674,-110.481"/>
<polygon fill="black" stroke="black" points="263.051,-113.069 268.844,-104.197 258.783,-107.52 263.051,-113.069"/>
</g>
<!-- Flash -->
<g id="node6" class="node"><title>Flash</title>
<ellipse fill="none" stroke="black" stroke-dasharray="5,2" cx="406" cy="-90" rx="28.9086" ry="18"/>
<text text-anchor="middle" x="406" y="-85.8" font-family="Times,serif" font-size="14.00">Flash</text>
</g>
<!-- Web&#45;&gt;Flash -->
<g id="edge5" class="edge"><title>Web&#45;&gt;Flash</title>
<path fill="none" stroke="black" stroke-dasharray="5,2" d="M237.192,-147.003C276.436,-133.983 334.228,-114.811 370.983,-102.617"/>
<polygon fill="black" stroke="black" points="372.37,-105.845 380.759,-99.3738 370.165,-99.2007 372.37,-105.845"/>
</g>
<!-- htmldesc -->
<g id="node7" class="node"><title>htmldesc</title>
<polygon fill="none" stroke="black" points="62.2487,-36 1.75125,-36 1.75125,-0 62.2487,-0 62.2487,-36"/>
<text text-anchor="middle" x="32" y="-13.8" font-family="Times,serif" font-size="14.00">Content</text>
</g>
<!-- HTML&#45;&gt;htmldesc -->
<g id="edge6" class="edge"><title>HTML&#45;&gt;htmldesc</title>
<path fill="none" stroke="black" d="M34.2584,-71.6966C33.7934,-60.8463 33.1964,-46.9167 32.733,-36.1043"/>
</g>
<!-- cssdesc -->
<g id="node8" class="node"><title>cssdesc</title>
<polygon fill="none" stroke="black" points="139.376,-36 80.6239,-36 80.6239,-0 139.376,-0 139.376,-36"/>
<text text-anchor="middle" x="110" y="-20.8" font-family="Times,serif" font-size="14.00">Style &amp;</text>
<text text-anchor="middle" x="110" y="-6.8" font-family="Times,serif" font-size="14.00">Layout</text>
</g>
<!-- CSS&#45;&gt;cssdesc -->
<g id="edge7" class="edge"><title>CSS&#45;&gt;cssdesc</title>
<path fill="none" stroke="black" d="M116.022,-71.6966C114.782,-60.8463 113.19,-46.9167 111.955,-36.1043"/>
</g>
<!-- jsdesc -->
<g id="node9" class="node"><title>jsdesc</title>
<polygon fill="none" stroke="black" points="232.238,-36 157.762,-36 157.762,-0 232.238,-0 232.238,-36"/>
<text text-anchor="middle" x="195" y="-13.8" font-family="Times,serif" font-size="14.00">Behaviour</text>
</g>
<!-- JS&#45;&gt;jsdesc -->
<g id="edge8" class="edge"><title>JS&#45;&gt;jsdesc</title>
<path fill="none" stroke="black" d="M195,-71.6966C195,-60.8463 195,-46.9167 195,-36.1043"/>
</g>
<!-- javadesc -->
<g id="node10" class="node"><title>javadesc</title>
<polygon fill="none" stroke="black" stroke-dasharray="5,2" points="359.877,-36 250.123,-36 250.123,-0 359.877,-0 359.877,-36"/>
<text text-anchor="middle" x="305" y="-20.8" font-family="Times,serif" font-size="14.00">Content, Style &amp;</text>
<text text-anchor="middle" x="305" y="-6.8" font-family="Times,serif" font-size="14.00">Behaviour</text>
</g>
<!-- Java&#45;&gt;javadesc -->
<g id="edge9" class="edge"><title>Java&#45;&gt;javadesc</title>
<path fill="none" stroke="black" stroke-dasharray="5,2" d="M290.599,-72.055C293.543,-61.2111 297.35,-47.183 300.311,-36.2753"/>
</g>
<!-- flashdesc -->
<g id="node11" class="node"><title>flashdesc</title>
<polygon fill="none" stroke="black" stroke-dasharray="5,2" points="488.877,-36 379.123,-36 379.123,-0 488.877,-0 488.877,-36"/>
<text text-anchor="middle" x="434" y="-20.8" font-family="Times,serif" font-size="14.00">Content, Style &amp;</text>
<text text-anchor="middle" x="434" y="-6.8" font-family="Times,serif" font-size="14.00">Behaviour</text>
</g>
<!-- Flash&#45;&gt;flashdesc -->
<g id="edge10" class="edge"><title>Flash&#45;&gt;flashdesc</title>
<path fill="none" stroke="black" stroke-dasharray="5,2" d="M412.636,-72.411C416.97,-61.5758 422.62,-47.4498 427.021,-36.4468"/>
</g>
</g>
</svg>
