<?xml version="1.0" encoding="UTF-8" standalone="no"?>
<!DOCTYPE svg PUBLIC "-//W3C//DTD SVG 1.1//EN"
 "http://www.w3.org/Graphics/SVG/1.1/DTD/svg11.dtd">
<!-- Generated by graphviz version 2.36.0 (20140111.2315)
 -->
<!-- Title: %3 Pages: 1 -->
<svg width="244pt" height="188pt"
 viewBox="0.00 0.00 244.00 188.00" xmlns="http://www.w3.org/2000/svg" xmlns:xlink="http://www.w3.org/1999/xlink">
<g id="graph0" class="graph" transform="scale(1 1) rotate(0) translate(4 184)">
<title>%3</title>
<!-- Web -->
<g id="node1" class="node"><title>Web</title>
<ellipse fill="none" stroke="black" cx="115" cy="-162" rx="75.0895" ry="18"/>
<text text-anchor="middle" x="115" y="-157.8" font-family="Times,serif" font-size="14.00">The Web Platform</text>
</g>
<!-- HTML -->
<g id="node2" class="node"><title>HTML</title>
<ellipse fill="none" stroke="black" cx="35" cy="-90" rx="35.241" ry="18"/>
<text text-anchor="middle" x="35" y="-85.8" font-family="Times,serif" font-size="14.00">HTML</text>
</g>
<!-- Web&#45;&gt;HTML -->
<g id="edge1" class="edge"><title>Web&#45;&gt;HTML</title>
<path fill="none" stroke="black" d="M96.0411,-144.411C85.154,-134.885 71.3597,-122.815 59.6397,-112.56"/>
<polygon fill="black" stroke="black" points="61.7491,-109.755 51.9186,-105.804 57.1396,-115.023 61.7491,-109.755"/>
</g>
<!-- CSS -->
<g id="node3" class="node"><title>CSS</title>
<ellipse fill="none" stroke="black" cx="115" cy="-90" rx="27" ry="18"/>
<text text-anchor="middle" x="115" y="-85.8" font-family="Times,serif" font-size="14.00">CSS</text>
</g>
<!-- Web&#45;&gt;CSS -->
<g id="edge2" class="edge"><title>Web&#45;&gt;CSS</title>
<path fill="none" stroke="black" d="M115,-143.697C115,-135.983 115,-126.712 115,-118.112"/>
<polygon fill="black" stroke="black" points="118.5,-118.104 115,-108.104 111.5,-118.104 118.5,-118.104"/>
</g>
<!-- JS -->
<g id="node4" class="node"><title>JS</title>
<ellipse fill="none" stroke="black" cx="192" cy="-90" rx="27" ry="18"/>
<text text-anchor="middle" x="192" y="-85.8" font-family="Times,serif" font-size="14.00">JS</text>
</g>
<!-- Web&#45;&gt;JS -->
<g id="edge3" class="edge"><title>Web&#45;&gt;JS</title>
<path fill="none" stroke="black" d="M133.248,-144.411C144.016,-134.622 157.738,-122.147 169.213,-111.715"/>
<polygon fill="black" stroke="black" points="171.689,-114.195 176.734,-104.878 166.98,-109.015 171.689,-114.195"/>
</g>
<!-- htmldesc -->
<g id="node5" class="node"><title>htmldesc</title>
<polygon fill="none" stroke="black" points="65.2487,-36 4.75125,-36 4.75125,-0 65.2487,-0 65.2487,-36"/>
<text text-anchor="middle" x="35" y="-13.8" font-family="Times,serif" font-size="14.00">Content</text>
</g>
<!-- HTML&#45;&gt;htmldesc -->
<g id="edge4" class="edge"><title>HTML&#45;&gt;htmldesc</title>
<path fill="none" stroke="black" d="M35,-71.6966C35,-60.8463 35,-46.9167 35,-36.1043"/>
</g>
<!-- cssdesc -->
<g id="node6" class="node"><title>cssdesc</title>
<polygon fill="none" stroke="black" points="143.376,-36 84.6239,-36 84.6239,-0 143.376,-0 143.376,-36"/>
<text text-anchor="middle" x="114" y="-20.8" font-family="Times,serif" font-size="14.00">Style &amp;</text>
<text text-anchor="middle" x="114" y="-6.8" font-family="Times,serif" font-size="14.00">Layout</text>
</g>
<!-- CSS&#45;&gt;cssdesc -->
<g id="edge5" class="edge"><title>CSS&#45;&gt;cssdesc</title>
<path fill="none" stroke="black" d="M114.753,-71.6966C114.598,-60.8463 114.399,-46.9167 114.244,-36.1043"/>
</g>
<!-- jsdesc -->
<g id="node7" class="node"><title>jsdesc</title>
<polygon fill="none" stroke="black" points="236.238,-36 161.762,-36 161.762,-0 236.238,-0 236.238,-36"/>
<text text-anchor="middle" x="199" y="-13.8" font-family="Times,serif" font-size="14.00">Behaviour</text>
</g>
<!-- JS&#45;&gt;jsdesc -->
<g id="edge6" class="edge"><title>JS&#45;&gt;jsdesc</title>
<path fill="none" stroke="black" d="M193.73,-71.6966C194.815,-60.8463 196.208,-46.9167 197.29,-36.1043"/>
</g>
</g>
</svg>
