<?xml version="1.0" encoding="UTF-8" standalone="no"?>
<!DOCTYPE svg PUBLIC "-//W3C//DTD SVG 1.1//EN"
 "http://www.w3.org/Graphics/SVG/1.1/DTD/svg11.dtd">
<!-- Generated by graphviz version 2.36.0 (20140111.2315)
 -->
<!-- Title: %3 Pages: 1 -->
<svg width="370pt" height="188pt"
 viewBox="0.00 0.00 370.00 188.00" xmlns="http://www.w3.org/2000/svg" xmlns:xlink="http://www.w3.org/1999/xlink">
<g id="graph0" class="graph" transform="scale(1 1) rotate(0) translate(4 184)">
<title>%3</title>
<!-- Web -->
<g id="node1" class="node"><title>Web</title>
<ellipse fill="none" stroke="black" cx="156" cy="-162" rx="75.0895" ry="18"/>
<text text-anchor="middle" x="156" y="-157.8" font-family="Times,serif" font-size="14.00">The Web Platform</text>
</g>
<!-- HTML -->
<g id="node2" class="node"><title>HTML</title>
<ellipse fill="none" stroke="black" cx="35" cy="-90" rx="35.241" ry="18"/>
<text text-anchor="middle" x="35" y="-85.8" font-family="Times,serif" font-size="14.00">HTML</text>
</g>
<!-- Web&#45;&gt;HTML -->
<g id="edge1" class="edge"><title>Web&#45;&gt;HTML</title>
<path fill="none" stroke="black" d="M128.543,-145.116C110.004,-134.39 85.4921,-120.21 66.2113,-109.056"/>
<polygon fill="black" stroke="black" points="67.8974,-105.988 57.4889,-104.01 64.3921,-112.047 67.8974,-105.988"/>
</g>
<!-- CSS -->
<g id="node3" class="node"><title>CSS</title>
<ellipse fill="none" stroke="black" cx="118" cy="-90" rx="27" ry="18"/>
<text text-anchor="middle" x="118" y="-85.8" font-family="Times,serif" font-size="14.00">CSS</text>
</g>
<!-- Web&#45;&gt;CSS -->
<g id="edge2" class="edge"><title>Web&#45;&gt;CSS</title>
<path fill="none" stroke="black" d="M146.801,-144.055C142.254,-135.679 136.676,-125.404 131.644,-116.134"/>
<polygon fill="black" stroke="black" points="134.699,-114.426 126.852,-107.307 128.547,-117.765 134.699,-114.426"/>
</g>
<!-- JS -->
<g id="node4" class="node"><title>JS</title>
<ellipse fill="none" stroke="black" cx="195" cy="-90" rx="27" ry="18"/>
<text text-anchor="middle" x="195" y="-85.8" font-family="Times,serif" font-size="14.00">JS</text>
</g>
<!-- Web&#45;&gt;JS -->
<g id="edge3" class="edge"><title>Web&#45;&gt;JS</title>
<path fill="none" stroke="black" d="M165.441,-144.055C170.107,-135.679 175.832,-125.404 180.997,-116.134"/>
<polygon fill="black" stroke="black" points="184.105,-117.746 185.915,-107.307 177.99,-114.339 184.105,-117.746"/>
</g>
<!-- Java -->
<g id="node5" class="node"><title>Java</title>
<ellipse fill="none" stroke="black" stroke-dasharray="5,2" cx="291" cy="-90" rx="27" ry="18"/>
<text text-anchor="middle" x="291" y="-85.8" font-family="Times,serif" font-size="14.00">Java</text>
</g>
<!-- Web&#45;&gt;Java -->
<g id="edge4" class="edge"><title>Web&#45;&gt;Java</title>
<path fill="none" stroke="black" stroke-dasharray="5,2" d="M185.961,-145.465C208.391,-133.834 238.93,-117.999 261.297,-106.401"/>
<polygon fill="black" stroke="black" points="263.069,-109.425 270.336,-101.715 259.847,-103.211 263.069,-109.425"/>
</g>
<!-- htmldesc -->
<g id="node6" class="node"><title>htmldesc</title>
<polygon fill="none" stroke="black" points="64.2487,-36 3.75125,-36 3.75125,-0 64.2487,-0 64.2487,-36"/>
<text text-anchor="middle" x="34" y="-13.8" font-family="Times,serif" font-size="14.00">Content</text>
</g>
<!-- HTML&#45;&gt;htmldesc -->
<g id="edge5" class="edge"><title>HTML&#45;&gt;htmldesc</title>
<path fill="none" stroke="black" d="M34.7528,-71.6966C34.5978,-60.8463 34.3988,-46.9167 34.2443,-36.1043"/>
</g>
<!-- cssdesc -->
<g id="node7" class="node"><title>cssdesc</title>
<polygon fill="none" stroke="black" points="141.376,-36 82.6239,-36 82.6239,-0 141.376,-0 141.376,-36"/>
<text text-anchor="middle" x="112" y="-20.8" font-family="Times,serif" font-size="14.00">Style &amp;</text>
<text text-anchor="middle" x="112" y="-6.8" font-family="Times,serif" font-size="14.00">Layout</text>
</g>
<!-- CSS&#45;&gt;cssdesc -->
<g id="edge6" class="edge"><title>CSS&#45;&gt;cssdesc</title>
<path fill="none" stroke="black" d="M116.517,-71.6966C115.587,-60.8463 114.393,-46.9167 113.466,-36.1043"/>
</g>
<!-- jsdesc -->
<g id="node8" class="node"><title>jsdesc</title>
<polygon fill="none" stroke="black" points="234.238,-36 159.762,-36 159.762,-0 234.238,-0 234.238,-36"/>
<text text-anchor="middle" x="197" y="-13.8" font-family="Times,serif" font-size="14.00">Behaviour</text>
</g>
<!-- JS&#45;&gt;jsdesc -->
<g id="edge7" class="edge"><title>JS&#45;&gt;jsdesc</title>
<path fill="none" stroke="black" d="M195.494,-71.6966C195.804,-60.8463 196.202,-46.9167 196.511,-36.1043"/>
</g>
<!-- javadesc -->
<g id="node9" class="node"><title>javadesc</title>
<polygon fill="none" stroke="black" stroke-dasharray="5,2" points="361.877,-36 252.123,-36 252.123,-0 361.877,-0 361.877,-36"/>
<text text-anchor="middle" x="307" y="-20.8" font-family="Times,serif" font-size="14.00">Content, Style &amp;</text>
<text text-anchor="middle" x="307" y="-6.8" font-family="Times,serif" font-size="14.00">Behaviour</text>
</g>
<!-- Java&#45;&gt;javadesc -->
<g id="edge8" class="edge"><title>Java&#45;&gt;javadesc</title>
<path fill="none" stroke="black" stroke-dasharray="5,2" d="M294.873,-72.055C297.352,-61.2111 300.558,-47.183 303.051,-36.2753"/>
</g>
</g>
</svg>
