<?xml version="1.0" encoding="UTF-8" standalone="no"?>
<!DOCTYPE svg PUBLIC "-//W3C//DTD SVG 1.1//EN"
 "http://www.w3.org/Graphics/SVG/1.1/DTD/svg11.dtd">
<!-- Generated by graphviz version 2.36.0 (20140111.2315)
 -->
<!-- Title: %3 Pages: 1 -->
<svg width="292pt" height="44pt"
 viewBox="0.00 0.00 292.00 44.00" xmlns="http://www.w3.org/2000/svg" xmlns:xlink="http://www.w3.org/1999/xlink">
<g id="graph0" class="graph" transform="scale(1 1) rotate(0) translate(4 40)">
<title>%3</title>
<!-- Quoteform -->
<g id="node1" class="node"><title>Quoteform</title>
<polygon fill="none" stroke="black" points="193.929,-36 116.071,-36 116.071,-0 193.929,-0 193.929,-36"/>
<text text-anchor="middle" x="155" y="-13.8" font-family="Times,serif" font-size="14.00">Quoteform</text>
</g>
<!-- UI -->
<g id="node3" class="node"><title>UI</title>
<ellipse fill="none" stroke="black" cx="257" cy="-18" rx="27" ry="18"/>
<text text-anchor="middle" x="257" y="-13.8" font-family="Times,serif" font-size="14.00">UI</text>
</g>
<!-- Quoteform&#45;&gt;UI -->
<g id="edge2" class="edge"><title>Quoteform&#45;&gt;UI</title>
<path fill="none" stroke="black" d="M193.806,-18C202.378,-18 211.459,-18 219.956,-18"/>
<polygon fill="black" stroke="black" points="219.957,-21.5001 229.957,-18 219.957,-14.5001 219.957,-21.5001"/>
</g>
<!-- callback -->
<g id="node2" class="node"><title>callback</title>
<ellipse fill="none" stroke="black" cx="40" cy="-18" rx="39.6299" ry="18"/>
<text text-anchor="middle" x="40" y="-13.8" font-family="Times,serif" font-size="14.00">callback</text>
</g>
<!-- callback&#45;&gt;Quoteform -->
<g id="edge1" class="edge"><title>callback&#45;&gt;Quoteform</title>
<path fill="none" stroke="black" d="M79.5721,-18C88.0277,-18 97.0808,-18 105.859,-18"/>
<polygon fill="black" stroke="black" points="105.985,-21.5001 115.985,-18 105.984,-14.5001 105.985,-21.5001"/>
</g>
</g>
</svg>
