<?xml version="1.0" encoding="UTF-8" standalone="no"?>
<!DOCTYPE svg PUBLIC "-//W3C//DTD SVG 1.1//EN"
 "http://www.w3.org/Graphics/SVG/1.1/DTD/svg11.dtd">
<!-- Generated by graphviz version 2.36.0 (20140111.2315)
 -->
<!-- Title: %3 Pages: 1 -->
<svg width="256pt" height="44pt"
 viewBox="0.00 0.00 256.00 44.00" xmlns="http://www.w3.org/2000/svg" xmlns:xlink="http://www.w3.org/1999/xlink">
<g id="graph0" class="graph" transform="scale(1 1) rotate(0) translate(4 40)">
<title>%3</title>
<!-- Quotelist -->
<g id="node1" class="node"><title>Quotelist</title>
<polygon fill="none" stroke="black" points="157.832,-36 90.1681,-36 90.1681,-0 157.832,-0 157.832,-36"/>
<text text-anchor="middle" x="124" y="-13.8" font-family="Times,serif" font-size="14.00">Quotelist</text>
</g>
<!-- UI -->
<g id="node3" class="node"><title>UI</title>
<ellipse fill="none" stroke="black" cx="221" cy="-18" rx="27" ry="18"/>
<text text-anchor="middle" x="221" y="-13.8" font-family="Times,serif" font-size="14.00">UI</text>
</g>
<!-- Quotelist&#45;&gt;UI -->
<g id="edge2" class="edge"><title>Quotelist&#45;&gt;UI</title>
<path fill="none" stroke="black" d="M157.694,-18C166.088,-18 175.168,-18 183.732,-18"/>
<polygon fill="black" stroke="black" points="183.841,-21.5001 193.84,-18 183.84,-14.5001 183.841,-21.5001"/>
</g>
<!-- list -->
<g id="node2" class="node"><title>list</title>
<ellipse fill="none" stroke="black" cx="27" cy="-18" rx="27" ry="18"/>
<text text-anchor="middle" x="27" y="-13.8" font-family="Times,serif" font-size="14.00">list</text>
</g>
<!-- list&#45;&gt;Quotelist -->
<g id="edge1" class="edge"><title>list&#45;&gt;Quotelist</title>
<path fill="none" stroke="black" d="M54.2106,-18C62.1845,-18 71.1675,-18 79.9461,-18"/>
<polygon fill="black" stroke="black" points="80.085,-21.5001 90.085,-18 80.0849,-14.5001 80.085,-21.5001"/>
</g>
</g>
</svg>
