<?xml version="1.0" encoding="UTF-8" standalone="no"?>
<!DOCTYPE svg PUBLIC "-//W3C//DTD SVG 1.1//EN"
 "http://www.w3.org/Graphics/SVG/1.1/DTD/svg11.dtd">
<!-- Generated by graphviz version 2.36.0 (20140111.2315)
 -->
<!-- Title: %3 Pages: 1 -->
<svg width="330pt" height="98pt"
 viewBox="0.00 0.00 330.00 98.00" xmlns="http://www.w3.org/2000/svg" xmlns:xlink="http://www.w3.org/1999/xlink">
<g id="graph0" class="graph" transform="scale(1 1) rotate(0) translate(4 94)">
<title>%3</title>
<!-- virtual -->
<g id="node1" class="node"><title>virtual</title>
<ellipse fill="none" stroke="black" cx="266" cy="-45" rx="56.0769" ry="18"/>
<text text-anchor="middle" x="266" y="-40.8" font-family="Times,serif" font-size="14.00">virtual DOM</text>
</g>
<!-- component -->
<g id="node2" class="node"><title>component</title>
<polygon fill="none" stroke="black" points="174.207,-63 95.7927,-63 95.7927,-27 174.207,-27 174.207,-63"/>
<text text-anchor="middle" x="135" y="-40.8" font-family="Times,serif" font-size="14.00">component</text>
</g>
<!-- component&#45;&gt;virtual -->
<g id="edge3" class="edge"><title>component&#45;&gt;virtual</title>
<path fill="none" stroke="black" d="M174.355,-45C182.362,-45 191.016,-45 199.69,-45"/>
<polygon fill="black" stroke="black" points="199.844,-48.5001 209.844,-45 199.844,-41.5001 199.844,-48.5001"/>
</g>
<!-- props -->
<g id="node3" class="node"><title>props</title>
<ellipse fill="none" stroke="black" cx="30" cy="-72" rx="29.5189" ry="18"/>
<text text-anchor="middle" x="30" y="-67.8" font-family="Times,serif" font-size="14.00">props</text>
</g>
<!-- props&#45;&gt;component -->
<g id="edge1" class="edge"><title>props&#45;&gt;component</title>
<path fill="none" stroke="black" d="M57.5251,-65.0468C66.1074,-62.7971 75.9106,-60.2273 85.5694,-57.6954"/>
<polygon fill="black" stroke="black" points="86.7396,-61.007 95.5253,-55.0856 84.9646,-54.2357 86.7396,-61.007"/>
</g>
<!-- state -->
<g id="node4" class="node"><title>state</title>
<ellipse fill="none" stroke="black" cx="30" cy="-18" rx="27" ry="18"/>
<text text-anchor="middle" x="30" y="-13.8" font-family="Times,serif" font-size="14.00">state</text>
</g>
<!-- state&#45;&gt;component -->
<g id="edge2" class="edge"><title>state&#45;&gt;component</title>
<path fill="none" stroke="black" d="M55.4096,-24.3986C64.5161,-26.7858 75.2024,-29.587 85.7098,-32.3414"/>
<polygon fill="black" stroke="black" points="85.1111,-35.8026 95.6718,-34.9528 86.8861,-29.0314 85.1111,-35.8026"/>
</g>
</g>
</svg>
