<?xml version="1.0" encoding="UTF-8" standalone="no"?>
<!DOCTYPE svg PUBLIC "-//W3C//DTD SVG 1.1//EN"
 "http://www.w3.org/Graphics/SVG/1.1/DTD/svg11.dtd">
<!-- Generated by graphviz version 2.36.0 (20140111.2315)
 -->
<!-- Title: %3 Pages: 1 -->
<svg width="634pt" height="44pt"
 viewBox="0.00 0.00 634.00 44.00" xmlns="http://www.w3.org/2000/svg" xmlns:xlink="http://www.w3.org/1999/xlink">
<g id="graph0" class="graph" transform="scale(1 1) rotate(0) translate(4 40)">
<title>%3</title>
<!-- constructor -->
<g id="node1" class="node"><title>constructor</title>
<ellipse fill="none" stroke="black" cx="50" cy="-18" rx="49.7792" ry="18"/>
<text text-anchor="middle" x="50" y="-13.8" font-family="Times,serif" font-size="14.00">constructor</text>
</g>
<!-- componentWillMount -->
<g id="node2" class="node"><title>componentWillMount</title>
<ellipse fill="none" stroke="black" cx="225" cy="-18" rx="88.2104" ry="18"/>
<text text-anchor="middle" x="225" y="-13.8" font-family="Times,serif" font-size="14.00">componentWillMount</text>
</g>
<!-- constructor&#45;&gt;componentWillMount -->
<g id="edge1" class="edge"><title>constructor&#45;&gt;componentWillMount</title>
<path fill="none" stroke="black" d="M100.112,-18C108.386,-18 117.226,-18 126.231,-18"/>
<polygon fill="black" stroke="black" points="126.447,-21.5001 136.447,-18 126.447,-14.5001 126.447,-21.5001"/>
</g>
<!-- render -->
<g id="node3" class="node"><title>render</title>
<ellipse fill="none" stroke="black" cx="383" cy="-18" rx="32.8821" ry="18"/>
<text text-anchor="middle" x="383" y="-13.8" font-family="Times,serif" font-size="14.00">render</text>
</g>
<!-- componentWillMount&#45;&gt;render -->
<g id="edge2" class="edge"><title>componentWillMount&#45;&gt;render</title>
<path fill="none" stroke="black" d="M313.576,-18C322.757,-18 331.758,-18 340.06,-18"/>
<polygon fill="black" stroke="black" points="340.164,-21.5001 350.164,-18 340.164,-14.5001 340.164,-21.5001"/>
</g>
<!-- componentDidMount -->
<g id="node4" class="node"><title>componentDidMount</title>
<ellipse fill="none" stroke="black" cx="539" cy="-18" rx="86.0051" ry="18"/>
<text text-anchor="middle" x="539" y="-13.8" font-family="Times,serif" font-size="14.00">componentDidMount</text>
</g>
<!-- render&#45;&gt;componentDidMount -->
<g id="edge3" class="edge"><title>render&#45;&gt;componentDidMount</title>
<path fill="none" stroke="black" d="M415.909,-18C424.017,-18 433.155,-18 442.69,-18"/>
<polygon fill="black" stroke="black" points="442.745,-21.5001 452.745,-18 442.745,-14.5001 442.745,-21.5001"/>
</g>
</g>
</svg>
