<?xml version="1.0" encoding="UTF-8" standalone="no"?>
<!DOCTYPE svg PUBLIC "-//W3C//DTD SVG 1.1//EN"
 "http://www.w3.org/Graphics/SVG/1.1/DTD/svg11.dtd">
<!-- Generated by graphviz version 2.36.0 (20140111.2315)
 -->
<!-- Title: %3 Pages: 1 -->
<svg width="330pt" height="44pt"
 viewBox="0.00 0.00 330.00 44.00" xmlns="http://www.w3.org/2000/svg" xmlns:xlink="http://www.w3.org/1999/xlink">
<g id="graph0" class="graph" transform="scale(1 1) rotate(0) translate(4 40)">
<title>%3</title>
<!-- component -->
<g id="node1" class="node"><title>component</title>
<polygon fill="none" stroke="black" points="174.207,-36 95.7927,-36 95.7927,-0 174.207,-0 174.207,-36"/>
<text text-anchor="middle" x="135" y="-13.8" font-family="Times,serif" font-size="14.00">component</text>
</g>
<!-- DOM -->
<g id="node2" class="node"><title>DOM</title>
<ellipse fill="none" stroke="black" cx="266" cy="-18" rx="56.0769" ry="18"/>
<text text-anchor="middle" x="266" y="-13.8" font-family="Times,serif" font-size="14.00">virtual DOM</text>
</g>
<!-- component&#45;&gt;DOM -->
<g id="edge2" class="edge"><title>component&#45;&gt;DOM</title>
<path fill="none" stroke="black" d="M174.355,-18C182.362,-18 191.016,-18 199.69,-18"/>
<polygon fill="black" stroke="black" points="199.844,-21.5001 209.844,-18 199.844,-14.5001 199.844,-21.5001"/>
</g>
<!-- props -->
<g id="node3" class="node"><title>props</title>
<ellipse fill="none" stroke="black" cx="30" cy="-18" rx="29.5189" ry="18"/>
<text text-anchor="middle" x="30" y="-13.8" font-family="Times,serif" font-size="14.00">props</text>
</g>
<!-- props&#45;&gt;component -->
<g id="edge1" class="edge"><title>props&#45;&gt;component</title>
<path fill="none" stroke="black" d="M59.9653,-18C67.92,-18 76.7681,-18 85.5007,-18"/>
<polygon fill="black" stroke="black" points="85.6386,-21.5001 95.6386,-18 85.6386,-14.5001 85.6386,-21.5001"/>
</g>
</g>
</svg>
