<?xml version="1.0" encoding="UTF-8" standalone="no"?>
<!DOCTYPE svg PUBLIC "-//W3C//DTD SVG 1.1//EN"
 "http://www.w3.org/Graphics/SVG/1.1/DTD/svg11.dtd">
<!-- Generated by graphviz version 2.36.0 (20140111.2315)
 -->
<!-- Title: %3 Pages: 1 -->
<svg width="274pt" height="44pt"
 viewBox="0.00 0.00 274.00 44.00" xmlns="http://www.w3.org/2000/svg" xmlns:xlink="http://www.w3.org/1999/xlink">
<g id="graph0" class="graph" transform="scale(1 1) rotate(0) translate(4 40)">
<title>%3</title>
<!-- Factory -->
<g id="node1" class="node"><title>Factory</title>
<polygon fill="none" stroke="black" points="167.266,-36 108.734,-36 108.734,-0 167.266,-0 167.266,-36"/>
<text text-anchor="middle" x="138" y="-13.8" font-family="Times,serif" font-size="14.00">Factory</text>
</g>
<!-- mixin -->
<g id="node3" class="node"><title>mixin</title>
<ellipse fill="none" stroke="black" cx="235" cy="-18" rx="30.988" ry="18"/>
<text text-anchor="middle" x="235" y="-13.8" font-family="Times,serif" font-size="14.00">mixin</text>
</g>
<!-- Factory&#45;&gt;mixin -->
<g id="edge2" class="edge"><title>Factory&#45;&gt;mixin</title>
<path fill="none" stroke="black" d="M167.503,-18C175.831,-18 185.092,-18 193.992,-18"/>
<polygon fill="black" stroke="black" points="194.198,-21.5001 204.198,-18 194.198,-14.5001 194.198,-21.5001"/>
</g>
<!-- options -->
<g id="node2" class="node"><title>options</title>
<ellipse fill="none" stroke="black" cx="36" cy="-18" rx="36.2992" ry="18"/>
<text text-anchor="middle" x="36" y="-13.8" font-family="Times,serif" font-size="14.00">options</text>
</g>
<!-- options&#45;&gt;Factory -->
<g id="edge1" class="edge"><title>options&#45;&gt;Factory</title>
<path fill="none" stroke="black" d="M72.2563,-18C80.7314,-18 89.8273,-18 98.4439,-18"/>
<polygon fill="black" stroke="black" points="98.6428,-21.5001 108.643,-18 98.6428,-14.5001 98.6428,-21.5001"/>
</g>
</g>
</svg>
