<?xml version="1.0" encoding="UTF-8" standalone="no"?>
<!DOCTYPE svg PUBLIC "-//W3C//DTD SVG 1.1//EN"
 "http://www.w3.org/Graphics/SVG/1.1/DTD/svg11.dtd">
<!-- Generated by graphviz version 2.36.0 (20140111.2315)
 -->
<!-- Title: %3 Pages: 1 -->
<svg width="246pt" height="58pt"
 viewBox="0.00 0.00 246.00 57.52" xmlns="http://www.w3.org/2000/svg" xmlns:xlink="http://www.w3.org/1999/xlink">
<g id="graph0" class="graph" transform="scale(1 1) rotate(0) translate(4 53.5231)">
<title>%3</title>
<!-- Parent -->
<g id="node1" class="node"><title>Parent</title>
<ellipse fill="none" stroke="black" cx="33" cy="-22.5231" rx="32.8994" ry="18"/>
<text text-anchor="middle" x="33" y="-18.3231" font-family="Times,serif" font-size="14.00">Parent</text>
</g>
<!-- Child -->
<g id="node2" class="node"><title>Child</title>
<ellipse fill="none" stroke="black" cx="208" cy="-22.5231" rx="29.5275" ry="18"/>
<text text-anchor="middle" x="208" y="-18.3231" font-family="Times,serif" font-size="14.00">Child</text>
</g>
<!-- Parent&#45;&gt;Child -->
<g id="edge1" class="edge"><title>Parent&#45;&gt;Child</title>
<path fill="none" stroke="black" d="M62.9071,-29.9953C69.7739,-31.4601 77.1078,-32.7739 84,-33.5231 117.58,-37.1733 126.445,-37.3974 160,-33.5231 163.434,-33.1266 166.982,-32.5723 170.517,-31.9213"/>
<polygon fill="black" stroke="black" points="171.265,-35.3409 180.344,-29.8815 169.842,-28.487 171.265,-35.3409"/>
<text text-anchor="middle" x="122" y="-38.3231" font-family="Times,serif" font-size="14.00">passes props</text>
</g>
<!-- Parent&#45;&gt;Child -->
<g id="edge2" class="edge"><title>Parent&#45;&gt;Child</title>
<path fill="none" stroke="none" d="M65.7309,-22.5231C94.4388,-22.5231 136.819,-22.5231 167.669,-22.5231"/>
<polygon fill="none" stroke="none" points="168.059,-26.0232 178.059,-22.5231 168.059,-19.0232 168.059,-26.0232"/>
</g>
<!-- Child&#45;&gt;Parent -->
<g id="edge3" class="edge"><title>Child&#45;&gt;Parent</title>
<path fill="none" stroke="black" d="M184.06,-11.8159C176.559,-8.8404 168.076,-6.01677 160,-4.52311 126.785,1.61958 117.275,1.28395 84,-4.52311 78.9601,-5.40266 73.7576,-6.74575 68.6993,-8.3103"/>
<polygon fill="black" stroke="black" points="67.5725,-4.99656 59.2306,-11.5283 69.825,-11.6243 67.5725,-4.99656"/>
<text text-anchor="middle" x="122" y="-7.32311" font-family="Times,serif" font-size="14.00">calls callback</text>
</g>
</g>
</svg>
