<?xml version="1.0" encoding="UTF-8" standalone="no"?>
<!DOCTYPE svg PUBLIC "-//W3C//DTD SVG 1.1//EN"
 "http://www.w3.org/Graphics/SVG/1.1/DTD/svg11.dtd">
<!-- Generated by graphviz version 2.36.0 (20140111.2315)
 -->
<!-- Title: %3 Pages: 1 -->
<svg width="248pt" height="98pt"
 viewBox="0.00 0.00 248.00 98.00" xmlns="http://www.w3.org/2000/svg" xmlns:xlink="http://www.w3.org/1999/xlink">
<g id="graph0" class="graph" transform="scale(1 1) rotate(0) translate(4 94)">
<title>%3</title>
<!-- render -->
<g id="node1" class="node"><title>render</title>
<polygon fill="none" stroke="black" points="150,-63 96,-63 96,-27 150,-27 150,-63"/>
<text text-anchor="middle" x="123" y="-40.8" font-family="Times,serif" font-size="14.00">render</text>
</g>
<!-- UI -->
<g id="node4" class="node"><title>UI</title>
<ellipse fill="none" stroke="black" cx="213" cy="-45" rx="27" ry="18"/>
<text text-anchor="middle" x="213" y="-40.8" font-family="Times,serif" font-size="14.00">UI</text>
</g>
<!-- render&#45;&gt;UI -->
<g id="edge3" class="edge"><title>render&#45;&gt;UI</title>
<path fill="none" stroke="black" d="M150.403,-45C158.393,-45 167.311,-45 175.824,-45"/>
<polygon fill="black" stroke="black" points="175.919,-48.5001 185.919,-45 175.919,-41.5001 175.919,-48.5001"/>
</g>
<!-- props -->
<g id="node2" class="node"><title>props</title>
<ellipse fill="none" stroke="black" cx="30" cy="-72" rx="29.5189" ry="18"/>
<text text-anchor="middle" x="30" y="-67.8" font-family="Times,serif" font-size="14.00">props</text>
</g>
<!-- props&#45;&gt;render -->
<g id="edge1" class="edge"><title>props&#45;&gt;render</title>
<path fill="none" stroke="black" d="M57.321,-64.1905C66.2815,-61.5319 76.4567,-58.5129 86.0405,-55.6693"/>
<polygon fill="black" stroke="black" points="87.1469,-58.9919 95.7382,-52.792 85.1557,-52.2811 87.1469,-58.9919"/>
</g>
<!-- state -->
<g id="node3" class="node"><title>state</title>
<ellipse fill="none" stroke="black" cx="30" cy="-18" rx="27" ry="18"/>
<text text-anchor="middle" x="30" y="-13.8" font-family="Times,serif" font-size="14.00">state</text>
</g>
<!-- state&#45;&gt;render -->
<g id="edge2" class="edge"><title>state&#45;&gt;render</title>
<path fill="none" stroke="black" d="M54.9092,-25.0939C64.4068,-27.9119 75.5384,-31.2147 85.9743,-34.311"/>
<polygon fill="black" stroke="black" points="85.108,-37.7048 95.6905,-37.1939 87.0991,-30.9939 85.108,-37.7048"/>
</g>
</g>
</svg>
