<?xml version="1.0" encoding="UTF-8" standalone="no"?>
<!DOCTYPE svg PUBLIC "-//W3C//DTD SVG 1.1//EN"
 "http://www.w3.org/Graphics/SVG/1.1/DTD/svg11.dtd">
<!-- Generated by graphviz version 2.36.0 (20140111.2315)
 -->
<!-- Title: %3 Pages: 1 -->
<svg width="622pt" height="162pt"
 viewBox="0.00 0.00 622.00 162.00" xmlns="http://www.w3.org/2000/svg" xmlns:xlink="http://www.w3.org/1999/xlink">
<g id="graph0" class="graph" transform="scale(1 1) rotate(0) translate(4 158)">
<title>%3</title>
<!-- componentWillReceiveProps -->
<g id="node1" class="node"><title>componentWillReceiveProps</title>
<ellipse fill="none" stroke="black" cx="114" cy="-136" rx="113.292" ry="18"/>
<text text-anchor="middle" x="114" y="-131.8" font-family="Times,serif" font-size="14.00">componentWillReceiveProps</text>
</g>
<!-- shouldComponentUpdate -->
<g id="node2" class="node"><title>shouldComponentUpdate</title>
<ellipse fill="none" stroke="black" cx="513" cy="-136" rx="100.495" ry="18"/>
<text text-anchor="middle" x="513" y="-131.8" font-family="Times,serif" font-size="14.00">shouldComponentUpdate</text>
</g>
<!-- componentWillReceiveProps&#45;&gt;shouldComponentUpdate -->
<g id="edge1" class="edge"><title>componentWillReceiveProps&#45;&gt;shouldComponentUpdate</title>
<path fill="none" stroke="black" d="M227.437,-136C282.259,-136 347.941,-136 402.382,-136"/>
<polygon fill="black" stroke="black" points="402.412,-139.5 412.412,-136 402.412,-132.5 402.412,-139.5"/>
</g>
<!-- componentWillUpdate -->
<g id="node3" class="node"><title>componentWillUpdate</title>
<ellipse fill="none" stroke="black" cx="513" cy="-18" rx="90.1141" ry="18"/>
<text text-anchor="middle" x="513" y="-13.8" font-family="Times,serif" font-size="14.00">componentWillUpdate</text>
</g>
<!-- shouldComponentUpdate&#45;&gt;componentWillUpdate -->
<g id="edge2" class="edge"><title>shouldComponentUpdate&#45;&gt;componentWillUpdate</title>
<path fill="none" stroke="black" stroke-dasharray="5,2" d="M513,-117.994C513,-98.9504 513,-68.6395 513,-46.3768"/>
<polygon fill="black" stroke="black" points="516.5,-46.1789 513,-36.1789 509.5,-46.1789 516.5,-46.1789"/>
<text text-anchor="middle" x="503" y="-72.8" font-family="Times,serif" font-size="14.00">if true</text>
</g>
<!-- componentDidUpdate -->
<g id="node4" class="node"><title>componentDidUpdate</title>
<ellipse fill="none" stroke="black" cx="114" cy="-18" rx="88.4084" ry="18"/>
<text text-anchor="middle" x="114" y="-13.8" font-family="Times,serif" font-size="14.00">componentDidUpdate</text>
</g>
<!-- render -->
<g id="node5" class="node"><title>render</title>
<ellipse fill="none" stroke="black" cx="320" cy="-18" rx="32.8821" ry="18"/>
<text text-anchor="middle" x="320" y="-13.8" font-family="Times,serif" font-size="14.00">render</text>
</g>
<!-- componentDidUpdate&#45;&gt;render -->
<g id="edge3" class="edge"><title>componentDidUpdate&#45;&gt;render</title>
<path fill="none" stroke="black" d="M212.67,-18C239.553,-18 266.837,-18 287.037,-18"/>
<polygon fill="black" stroke="black" points="212.402,-14.5001 202.402,-18 212.402,-21.5001 212.402,-14.5001"/>
</g>
<!-- render&#45;&gt;componentWillUpdate -->
<g id="edge4" class="edge"><title>render&#45;&gt;componentWillUpdate</title>
<path fill="none" stroke="black" d="M363.402,-18C380.942,-18 401.984,-18 422.642,-18"/>
<polygon fill="black" stroke="black" points="362.969,-14.5001 352.969,-18 362.969,-21.5001 362.969,-14.5001"/>
</g>
<!-- forceUpdate -->
<g id="node6" class="node"><title>forceUpdate</title>
<ellipse fill="none" stroke="red" cx="320" cy="-90" rx="53.6127" ry="18"/>
<text text-anchor="middle" x="320" y="-85.8" font-family="Times,serif" font-size="14.00" fill="red">forceUpdate</text>
</g>
<!-- forceUpdate&#45;&gt;render -->
<g id="edge5" class="edge"><title>forceUpdate&#45;&gt;render</title>
<path fill="none" stroke="red" d="M320,-71.8594C320,-63.2681 320,-54.6768 320,-46.0854"/>
<polygon fill="red" stroke="red" points="323.5,-46 320,-36 316.5,-46 323.5,-46"/>
</g>
</g>
</svg>
