<?xml version="1.0" encoding="UTF-8" standalone="no"?>
<!DOCTYPE svg PUBLIC "-//W3C//DTD SVG 1.1//EN"
 "http://www.w3.org/Graphics/SVG/1.1/DTD/svg11.dtd">
<!-- Generated by graphviz version 2.36.0 (20140111.2315)
 -->
<!-- Title: %3 Pages: 1 -->
<svg width="480pt" height="179pt"
 viewBox="0.00 0.00 480.00 179.00" xmlns="http://www.w3.org/2000/svg" xmlns:xlink="http://www.w3.org/1999/xlink">
<g id="graph0" class="graph" transform="scale(1 1) rotate(0) translate(4 175)">
<title>%3</title>
<!-- connect -->
<g id="node1" class="node"><title>connect</title>
<polygon fill="none" stroke="black" points="229.533,-90 170.467,-90 170.467,-54 229.533,-54 229.533,-90"/>
<text text-anchor="middle" x="200" y="-67.8" font-family="Times,serif" font-size="14.00">connect</text>
</g>
<!-- wrapper -->
<g id="node2" class="node"><title>wrapper</title>
<polygon fill="none" stroke="black" points="349.156,-117 286.844,-117 286.844,-81 349.156,-81 349.156,-117"/>
<text text-anchor="middle" x="318" y="-101.8" font-family="Times,serif" font-size="14.00">wrapper</text>
<text text-anchor="middle" x="318" y="-87.8" font-family="Times,serif" font-size="14.00">function</text>
</g>
<!-- connect&#45;&gt;wrapper -->
<g id="edge6" class="edge"><title>connect&#45;&gt;wrapper</title>
<path fill="none" stroke="black" stroke-dasharray="5,2" d="M229.674,-78.6742C243.873,-81.9792 261.255,-86.0249 276.762,-89.6342"/>
<polygon fill="black" stroke="black" points="276.096,-93.0727 286.629,-91.9309 277.683,-86.2549 276.096,-93.0727"/>
</g>
<!-- container -->
<g id="node3" class="node"><title>container</title>
<ellipse fill="none" stroke="black" cx="429" cy="-126" rx="43.0128" ry="18"/>
<text text-anchor="middle" x="429" y="-121.8" font-family="Times,serif" font-size="14.00">container</text>
</g>
<!-- wrapper&#45;&gt;container -->
<g id="edge7" class="edge"><title>wrapper&#45;&gt;container</title>
<path fill="none" stroke="black" stroke-dasharray="5,2" d="M349.363,-106.521C359.394,-109.006 370.793,-111.829 381.738,-114.541"/>
<polygon fill="black" stroke="black" points="381.062,-117.979 391.61,-116.986 382.745,-111.184 381.062,-117.979"/>
</g>
<!-- mapState -->
<g id="node4" class="node"><title>mapState</title>
<ellipse fill="none" stroke="black" cx="57" cy="-126" rx="43.0301" ry="18"/>
<text text-anchor="middle" x="57" y="-121.8" font-family="Times,serif" font-size="14.00">mapState</text>
</g>
<!-- mapState&#45;&gt;connect -->
<g id="edge1" class="edge"><title>mapState&#45;&gt;connect</title>
<path fill="none" stroke="black" d="M89.2925,-114.016C110.353,-105.95 138.259,-95.2625 160.655,-86.6854"/>
<polygon fill="black" stroke="black" points="162.109,-89.8765 170.196,-83.0315 159.605,-83.3395 162.109,-89.8765"/>
</g>
<!-- mapDispatch -->
<g id="node5" class="node"><title>mapDispatch</title>
<ellipse fill="none" stroke="black" cx="57" cy="-72" rx="56.5373" ry="18"/>
<text text-anchor="middle" x="57" y="-67.8" font-family="Times,serif" font-size="14.00">mapDispatch</text>
</g>
<!-- mapDispatch&#45;&gt;connect -->
<g id="edge2" class="edge"><title>mapDispatch&#45;&gt;connect</title>
<path fill="none" stroke="black" d="M114.132,-72C129.432,-72 145.674,-72 159.809,-72"/>
<polygon fill="black" stroke="black" points="160.157,-75.5001 170.157,-72 160.157,-68.5001 160.157,-75.5001"/>
</g>
<!-- bake -->
<g id="node6" class="node"><title>bake</title>
<ellipse fill="none" stroke="black" cx="57" cy="-18" rx="27" ry="18"/>
<text text-anchor="middle" x="57" y="-13.8" font-family="Times,serif" font-size="14.00">bake</text>
</g>
<!-- bake&#45;&gt;connect -->
<g id="edge3" class="edge"><title>bake&#45;&gt;connect</title>
<path fill="none" stroke="black" d="M80.9679,-26.7962C102.626,-35.0908 135.487,-47.6758 161.041,-57.4624"/>
<polygon fill="black" stroke="black" points="159.848,-60.7533 170.438,-61.0614 162.351,-54.2163 159.848,-60.7533"/>
</g>
<!-- component -->
<g id="node7" class="node"><title>component</title>
<ellipse fill="none" stroke="black" cx="200" cy="-126" rx="49.3032" ry="18"/>
<text text-anchor="middle" x="200" y="-121.8" font-family="Times,serif" font-size="14.00">component</text>
</g>
<!-- component&#45;&gt;wrapper -->
<g id="edge4" class="edge"><title>component&#45;&gt;wrapper</title>
<path fill="none" stroke="black" d="M242.224,-116.405C253.392,-113.805 265.468,-110.994 276.591,-108.406"/>
<polygon fill="black" stroke="black" points="277.538,-111.779 286.484,-106.103 275.951,-104.961 277.538,-111.779"/>
</g>
<!-- props -->
<g id="node8" class="node"><title>props</title>
<ellipse fill="none" stroke="black" cx="318" cy="-153" rx="29.5189" ry="18"/>
<text text-anchor="middle" x="318" y="-148.8" font-family="Times,serif" font-size="14.00">props</text>
</g>
<!-- props&#45;&gt;container -->
<g id="edge5" class="edge"><title>props&#45;&gt;container</title>
<path fill="none" stroke="black" d="M345.944,-146.326C356.681,-143.666 369.354,-140.527 381.488,-137.521"/>
<polygon fill="black" stroke="black" points="382.633,-140.843 391.499,-135.042 380.95,-134.049 382.633,-140.843"/>
</g>
</g>
</svg>
