<?xml version="1.0" encoding="UTF-8" standalone="no"?>
<!DOCTYPE svg PUBLIC "-//W3C//DTD SVG 1.1//EN"
 "http://www.w3.org/Graphics/SVG/1.1/DTD/svg11.dtd">
<!-- Generated by graphviz version 2.36.0 (20140111.2315)
 -->
<!-- Title: %3 Pages: 1 -->
<svg width="260pt" height="152pt"
 viewBox="0.00 0.00 260.00 152.00" xmlns="http://www.w3.org/2000/svg" xmlns:xlink="http://www.w3.org/1999/xlink">
<g id="graph0" class="graph" transform="scale(1 1) rotate(0) translate(4 148)">
<title>%3</title>
<!-- render -->
<g id="node1" class="node"><title>render</title>
<polygon fill="none" stroke="black" points="162,-90 108,-90 108,-54 162,-54 162,-90"/>
<text text-anchor="middle" x="135" y="-67.8" font-family="Times,serif" font-size="14.00">render</text>
</g>
<!-- UI -->
<g id="node5" class="node"><title>UI</title>
<ellipse fill="none" stroke="black" cx="225" cy="-72" rx="27" ry="18"/>
<text text-anchor="middle" x="225" y="-67.8" font-family="Times,serif" font-size="14.00">UI</text>
</g>
<!-- render&#45;&gt;UI -->
<g id="edge4" class="edge"><title>render&#45;&gt;UI</title>
<path fill="none" stroke="black" d="M162.403,-72C170.393,-72 179.311,-72 187.824,-72"/>
<polygon fill="black" stroke="black" points="187.919,-75.5001 197.919,-72 187.919,-68.5001 187.919,-75.5001"/>
</g>
<!-- props -->
<g id="node2" class="node"><title>props</title>
<ellipse fill="none" stroke="black" cx="36" cy="-126" rx="29.5189" ry="18"/>
<text text-anchor="middle" x="36" y="-121.8" font-family="Times,serif" font-size="14.00">props</text>
</g>
<!-- props&#45;&gt;render -->
<g id="edge1" class="edge"><title>props&#45;&gt;render</title>
<path fill="none" stroke="black" d="M58.5274,-114.016C70.3182,-107.452 85.2275,-99.1517 98.6747,-91.6656"/>
<polygon fill="black" stroke="black" points="100.66,-94.5665 107.694,-86.6443 97.2547,-88.4504 100.66,-94.5665"/>
</g>
<!-- state -->
<g id="node3" class="node"><title>state</title>
<ellipse fill="none" stroke="black" cx="36" cy="-72" rx="27" ry="18"/>
<text text-anchor="middle" x="36" y="-67.8" font-family="Times,serif" font-size="14.00">state</text>
</g>
<!-- state&#45;&gt;render -->
<g id="edge2" class="edge"><title>state&#45;&gt;render</title>
<path fill="none" stroke="black" d="M63.2496,-72C73.8171,-72 86.1838,-72 97.5961,-72"/>
<polygon fill="black" stroke="black" points="97.7295,-75.5001 107.729,-72 97.7294,-68.5001 97.7295,-75.5001"/>
</g>
<!-- context -->
<g id="node4" class="node"><title>context</title>
<ellipse fill="none" stroke="black" cx="36" cy="-18" rx="36.2732" ry="18"/>
<text text-anchor="middle" x="36" y="-13.8" font-family="Times,serif" font-size="14.00">context</text>
</g>
<!-- context&#45;&gt;render -->
<g id="edge3" class="edge"><title>context&#45;&gt;render</title>
<path fill="none" stroke="black" d="M60.9775,-31.3483C72.4444,-37.7319 86.393,-45.4971 99.0146,-52.5236"/>
<polygon fill="black" stroke="black" points="97.4763,-55.673 107.916,-57.4791 100.881,-49.5569 97.4763,-55.673"/>
</g>
</g>
</svg>
