<?xml version="1.0" encoding="UTF-8" standalone="no"?>
<!DOCTYPE svg PUBLIC "-//W3C//DTD SVG 1.1//EN"
 "http://www.w3.org/Graphics/SVG/1.1/DTD/svg11.dtd">
<!-- Generated by graphviz version 2.36.0 (20140111.2315)
 -->
<!-- Title: %3 Pages: 1 -->
<svg width="580pt" height="116pt"
 viewBox="0.00 0.00 580.00 116.00" xmlns="http://www.w3.org/2000/svg" xmlns:xlink="http://www.w3.org/1999/xlink">
<g id="graph0" class="graph" transform="scale(1 1) rotate(0) translate(4 112)">
<title>%3</title>
<!-- componentWillReceiveProps -->
<g id="node1" class="node"><title>componentWillReceiveProps</title>
<ellipse fill="none" stroke="black" cx="114" cy="-90" rx="113.292" ry="18"/>
<text text-anchor="middle" x="114" y="-85.8" font-family="Times,serif" font-size="14.00">componentWillReceiveProps</text>
</g>
<!-- shouldComponentUpdate -->
<g id="node2" class="node"><title>shouldComponentUpdate</title>
<ellipse fill="none" stroke="black" cx="471" cy="-90" rx="100.495" ry="18"/>
<text text-anchor="middle" x="471" y="-85.8" font-family="Times,serif" font-size="14.00">shouldComponentUpdate</text>
</g>
<!-- componentWillReceiveProps&#45;&gt;shouldComponentUpdate -->
<g id="edge1" class="edge"><title>componentWillReceiveProps&#45;&gt;shouldComponentUpdate</title>
<path fill="none" stroke="black" d="M227.812,-90C270.196,-90 318.282,-90 360.372,-90"/>
<polygon fill="black" stroke="black" points="360.374,-93.5001 370.373,-90 360.373,-86.5001 360.374,-93.5001"/>
</g>
<!-- componentWillUpdate -->
<g id="node3" class="node"><title>componentWillUpdate</title>
<ellipse fill="none" stroke="black" cx="471" cy="-18" rx="90.1141" ry="18"/>
<text text-anchor="middle" x="471" y="-13.8" font-family="Times,serif" font-size="14.00">componentWillUpdate</text>
</g>
<!-- shouldComponentUpdate&#45;&gt;componentWillUpdate -->
<g id="edge2" class="edge"><title>shouldComponentUpdate&#45;&gt;componentWillUpdate</title>
<path fill="none" stroke="black" stroke-dasharray="5,2" d="M471,-71.5867C471,-63.9407 471,-54.8916 471,-46.4274"/>
<polygon fill="black" stroke="black" points="474.5,-46.1686 471,-36.1686 467.5,-46.1687 474.5,-46.1686"/>
<text text-anchor="middle" x="461" y="-49.8" font-family="Times,serif" font-size="14.00">if true</text>
</g>
<!-- componentDidUpdate -->
<g id="node4" class="node"><title>componentDidUpdate</title>
<ellipse fill="none" stroke="black" cx="114" cy="-18" rx="88.4084" ry="18"/>
<text text-anchor="middle" x="114" y="-13.8" font-family="Times,serif" font-size="14.00">componentDidUpdate</text>
</g>
<!-- render -->
<g id="node5" class="node"><title>render</title>
<ellipse fill="none" stroke="black" cx="299" cy="-18" rx="32.8821" ry="18"/>
<text text-anchor="middle" x="299" y="-13.8" font-family="Times,serif" font-size="14.00">render</text>
</g>
<!-- componentDidUpdate&#45;&gt;render -->
<g id="edge3" class="edge"><title>componentDidUpdate&#45;&gt;render</title>
<path fill="none" stroke="black" d="M212.384,-18C231.809,-18 250.878,-18 266.072,-18"/>
<polygon fill="black" stroke="black" points="212.212,-14.5001 202.212,-18 212.212,-21.5001 212.212,-14.5001"/>
</g>
<!-- render&#45;&gt;componentWillUpdate -->
<g id="edge4" class="edge"><title>render&#45;&gt;componentWillUpdate</title>
<path fill="none" stroke="black" d="M342.267,-18C353.96,-18 367.111,-18 380.413,-18"/>
<polygon fill="black" stroke="black" points="341.976,-14.5001 331.976,-18 341.976,-21.5001 341.976,-14.5001"/>
</g>
</g>
</svg>
