<?xml version="1.0" encoding="UTF-8" standalone="no"?>
<!DOCTYPE svg PUBLIC "-//W3C//DTD SVG 1.1//EN"
 "http://www.w3.org/Graphics/SVG/1.1/DTD/svg11.dtd">
<!-- Generated by graphviz version 2.36.0 (20140111.2315)
 -->
<!-- Title: %3 Pages: 1 -->
<svg width="598pt" height="112pt"
 viewBox="0.00 0.00 598.00 112.00" xmlns="http://www.w3.org/2000/svg" xmlns:xlink="http://www.w3.org/1999/xlink">
<g id="graph0" class="graph" transform="scale(1 1) rotate(0) translate(4 108)">
<title>%3</title>
<!-- component -->
<g id="node1" class="node"><title>component</title>
<polygon fill="none" stroke="black" points="174.207,-36 95.7927,-36 95.7927,-0 174.207,-0 174.207,-36"/>
<text text-anchor="middle" x="135" y="-13.8" font-family="Times,serif" font-size="14.00">component</text>
</g>
<!-- DOM -->
<g id="node4" class="node"><title>DOM</title>
<ellipse fill="none" stroke="black" cx="273" cy="-18" rx="56.0769" ry="18"/>
<text text-anchor="middle" x="273" y="-13.8" font-family="Times,serif" font-size="14.00">virtual DOM</text>
</g>
<!-- component&#45;&gt;DOM -->
<g id="edge2" class="edge"><title>component&#45;&gt;DOM</title>
<path fill="none" stroke="black" d="M174.246,-18C184.351,-18 195.548,-18 206.652,-18"/>
<polygon fill="black" stroke="black" points="206.788,-21.5001 216.788,-18 206.788,-14.5001 206.788,-21.5001"/>
</g>
<!-- React -->
<g id="node2" class="node"><title>React</title>
<polygon fill="none" stroke="black" points="426,-73 372,-73 372,-23 426,-23 426,-73"/>
<text text-anchor="middle" x="399" y="-57.8" font-family="Times,serif" font-size="14.00">React</text>
<text text-anchor="middle" x="399" y="-43.8" font-family="Times,serif" font-size="14.00">diffing</text>
<text text-anchor="middle" x="399" y="-29.8" font-family="Times,serif" font-size="14.00">engine</text>
</g>
<!-- changes -->
<g id="node5" class="node"><title>changes</title>
<ellipse fill="none" stroke="black" cx="526" cy="-48" rx="63.0536" ry="35.2113"/>
<text text-anchor="middle" x="526" y="-57.8" font-family="Times,serif" font-size="14.00">set of</text>
<text text-anchor="middle" x="526" y="-43.8" font-family="Times,serif" font-size="14.00">DOM update</text>
<text text-anchor="middle" x="526" y="-29.8" font-family="Times,serif" font-size="14.00">instructions</text>
</g>
<!-- React&#45;&gt;changes -->
<g id="edge5" class="edge"><title>React&#45;&gt;changes</title>
<path fill="none" stroke="black" d="M426.204,-48C434.038,-48 443.035,-48 452.342,-48"/>
<polygon fill="black" stroke="black" points="452.521,-51.5001 462.521,-48 452.521,-44.5001 452.521,-51.5001"/>
</g>
<!-- previousDOM -->
<g id="node3" class="node"><title>previousDOM</title>
<ellipse fill="none" stroke="black" cx="273" cy="-79" rx="62.9612" ry="25.4118"/>
<text text-anchor="middle" x="273" y="-81.8" font-family="Times,serif" font-size="14.00">previous</text>
<text text-anchor="middle" x="273" y="-67.8" font-family="Times,serif" font-size="14.00">virtual DOM</text>
</g>
<!-- previousDOM&#45;&gt;React -->
<g id="edge3" class="edge"><title>previousDOM&#45;&gt;React</title>
<path fill="none" stroke="black" d="M326.587,-65.8532C338.514,-62.8715 350.917,-59.7708 361.974,-57.0065"/>
<polygon fill="black" stroke="black" points="362.846,-60.3964 371.698,-54.5755 361.148,-53.6054 362.846,-60.3964"/>
</g>
<!-- DOM&#45;&gt;React -->
<g id="edge4" class="edge"><title>DOM&#45;&gt;React</title>
<path fill="none" stroke="black" d="M318.417,-28.746C332.704,-32.2026 348.349,-35.9877 361.958,-39.2803"/>
<polygon fill="black" stroke="black" points="361.37,-42.7387 371.912,-41.6884 363.016,-35.935 361.37,-42.7387"/>
</g>
<!-- props -->
<g id="node6" class="node"><title>props</title>
<ellipse fill="none" stroke="black" cx="30" cy="-18" rx="29.5189" ry="18"/>
<text text-anchor="middle" x="30" y="-13.8" font-family="Times,serif" font-size="14.00">props</text>
</g>
<!-- props&#45;&gt;component -->
<g id="edge1" class="edge"><title>props&#45;&gt;component</title>
<path fill="none" stroke="black" d="M59.9653,-18C67.92,-18 76.7681,-18 85.5007,-18"/>
<polygon fill="black" stroke="black" points="85.6386,-21.5001 95.6386,-18 85.6386,-14.5001 85.6386,-21.5001"/>
</g>
</g>
</svg>
