<?xml version="1.0" encoding="UTF-8" standalone="no"?>
<!DOCTYPE svg PUBLIC "-//W3C//DTD SVG 1.1//EN"
 "http://www.w3.org/Graphics/SVG/1.1/DTD/svg11.dtd">
<!-- Generated by graphviz version 2.36.0 (20140111.2315)
 -->
<!-- Title: %3 Pages: 1 -->
<svg width="248pt" height="44pt"
 viewBox="0.00 0.00 248.00 44.00" xmlns="http://www.w3.org/2000/svg" xmlns:xlink="http://www.w3.org/1999/xlink">
<g id="graph0" class="graph" transform="scale(1 1) rotate(0) translate(4 40)">
<title>%3</title>
<!-- render -->
<g id="node1" class="node"><title>render</title>
<polygon fill="none" stroke="black" points="150,-36 96,-36 96,-0 150,-0 150,-36"/>
<text text-anchor="middle" x="123" y="-13.8" font-family="Times,serif" font-size="14.00">render</text>
</g>
<!-- UI -->
<g id="node3" class="node"><title>UI</title>
<ellipse fill="none" stroke="black" cx="213" cy="-18" rx="27" ry="18"/>
<text text-anchor="middle" x="213" y="-13.8" font-family="Times,serif" font-size="14.00">UI</text>
</g>
<!-- render&#45;&gt;UI -->
<g id="edge2" class="edge"><title>render&#45;&gt;UI</title>
<path fill="none" stroke="black" d="M150.403,-18C158.393,-18 167.311,-18 175.824,-18"/>
<polygon fill="black" stroke="black" points="175.919,-21.5001 185.919,-18 175.919,-14.5001 175.919,-21.5001"/>
</g>
<!-- props -->
<g id="node2" class="node"><title>props</title>
<ellipse fill="none" stroke="black" cx="30" cy="-18" rx="29.5189" ry="18"/>
<text text-anchor="middle" x="30" y="-13.8" font-family="Times,serif" font-size="14.00">props</text>
</g>
<!-- props&#45;&gt;render -->
<g id="edge1" class="edge"><title>props&#45;&gt;render</title>
<path fill="none" stroke="black" d="M59.793,-18C68.0112,-18 77.0738,-18 85.6794,-18"/>
<polygon fill="black" stroke="black" points="85.8621,-21.5001 95.8621,-18 85.8621,-14.5001 85.8621,-21.5001"/>
</g>
</g>
</svg>
