<?xml version="1.0" encoding="UTF-8" standalone="no"?>
<!DOCTYPE svg PUBLIC "-//W3C//DTD SVG 1.1//EN"
 "http://www.w3.org/Graphics/SVG/1.1/DTD/svg11.dtd">
<!-- Generated by graphviz version 2.36.0 (20140111.2315)
 -->
<!-- Title: %3 Pages: 1 -->
<svg width="268pt" height="44pt"
 viewBox="0.00 0.00 268.00 44.00" xmlns="http://www.w3.org/2000/svg" xmlns:xlink="http://www.w3.org/1999/xlink">
<g id="graph0" class="graph" transform="scale(1 1) rotate(0) translate(4 40)">
<title>%3</title>
<!-- actioncreator -->
<g id="node1" class="node"><title>actioncreator</title>
<polygon fill="none" stroke="black" points="55.3557,-36 0.644341,-36 0.644341,-0 55.3557,-0 55.3557,-36"/>
<text text-anchor="middle" x="28" y="-20.8" font-family="Times,serif" font-size="14.00">Action</text>
<text text-anchor="middle" x="28" y="-6.8" font-family="Times,serif" font-size="14.00">creator</text>
</g>
<!-- Action -->
<g id="node3" class="node"><title>Action</title>
<ellipse fill="none" stroke="black" cx="126" cy="-18" rx="34.3527" ry="18"/>
<text text-anchor="middle" x="126" y="-13.8" font-family="Times,serif" font-size="14.00">Action</text>
</g>
<!-- actioncreator&#45;&gt;Action -->
<g id="edge1" class="edge"><title>actioncreator&#45;&gt;Action</title>
<path fill="none" stroke="black" d="M55.4865,-18C63.5443,-18 72.6219,-18 81.4929,-18"/>
<polygon fill="black" stroke="black" points="81.7385,-21.5001 91.7385,-18 81.7385,-14.5001 81.7385,-21.5001"/>
</g>
<!-- storedispatch -->
<g id="node2" class="node"><title>storedispatch</title>
<polygon fill="none" stroke="black" points="259.156,-36 196.844,-36 196.844,-0 259.156,-0 259.156,-36"/>
<text text-anchor="middle" x="228" y="-20.8" font-family="Times,serif" font-size="14.00">Store</text>
<text text-anchor="middle" x="228" y="-6.8" font-family="Times,serif" font-size="14.00">dispatch</text>
</g>
<!-- Action&#45;&gt;storedispatch -->
<g id="edge2" class="edge"><title>Action&#45;&gt;storedispatch</title>
<path fill="none" stroke="black" d="M160.299,-18C168.62,-18 177.638,-18 186.273,-18"/>
<polygon fill="black" stroke="black" points="186.545,-21.5001 196.545,-18 186.545,-14.5001 186.545,-21.5001"/>
</g>
</g>
</svg>
