<?xml version="1.0" encoding="UTF-8" standalone="no"?>
<!DOCTYPE svg PUBLIC "-//W3C//DTD SVG 1.1//EN"
 "http://www.w3.org/Graphics/SVG/1.1/DTD/svg11.dtd">
<!-- Generated by graphviz version 2.36.0 (20140111.2315)
 -->
<!-- Title: %3 Pages: 1 -->
<svg width="508pt" height="98pt"
 viewBox="0.00 0.00 508.00 98.00" xmlns="http://www.w3.org/2000/svg" xmlns:xlink="http://www.w3.org/1999/xlink">
<g id="graph0" class="graph" transform="scale(1 1) rotate(0) translate(4 94)">
<title>%3</title>
<g id="clust1" class="cluster"><title>cluster_withmid</title>
<polygon fill="none" stroke="black" points="188,-8 188,-82 492,-82 492,-8 188,-8"/>
<text text-anchor="middle" x="340" y="-66.8" font-family="Times,serif" font-size="14.00">Middlewared dispatch</text>
</g>
<!-- actioncreator -->
<g id="node1" class="node"><title>actioncreator</title>
<polygon fill="none" stroke="black" points="55.3557,-52 0.644341,-52 0.644341,-16 55.3557,-16 55.3557,-52"/>
<text text-anchor="middle" x="28" y="-36.8" font-family="Times,serif" font-size="14.00">Action</text>
<text text-anchor="middle" x="28" y="-22.8" font-family="Times,serif" font-size="14.00">creator</text>
</g>
<!-- action1 -->
<g id="node2" class="node"><title>action1</title>
<ellipse fill="none" stroke="black" cx="126" cy="-34" rx="34.3527" ry="18"/>
<text text-anchor="middle" x="126" y="-29.8" font-family="Times,serif" font-size="14.00">Action</text>
</g>
<!-- actioncreator&#45;&gt;action1 -->
<g id="edge1" class="edge"><title>actioncreator&#45;&gt;action1</title>
<path fill="none" stroke="black" d="M55.4865,-34C63.5443,-34 72.6219,-34 81.4929,-34"/>
<polygon fill="black" stroke="black" points="81.7385,-37.5001 91.7385,-34 81.7385,-30.5001 81.7385,-37.5001"/>
</g>
<!-- mid1 -->
<g id="node4" class="node"><title>mid1</title>
<polygon fill="none" stroke="black" points="279.642,-52 196.358,-52 196.358,-16 279.642,-16 279.642,-52"/>
<text text-anchor="middle" x="238" y="-29.8" font-family="Times,serif" font-size="14.00">Middleware</text>
</g>
<!-- action1&#45;&gt;mid1 -->
<g id="edge2" class="edge"><title>action1&#45;&gt;mid1</title>
<path fill="none" stroke="black" d="M160.302,-34C168.392,-34 177.228,-34 185.932,-34"/>
<polygon fill="black" stroke="black" points="186.036,-37.5001 196.036,-34 186.036,-30.5001 186.036,-37.5001"/>
</g>
<!-- storedispatch -->
<g id="node3" class="node"><title>storedispatch</title>
<polygon fill="none" stroke="black" points="483.156,-52 420.844,-52 420.844,-16 483.156,-16 483.156,-52"/>
<text text-anchor="middle" x="452" y="-36.8" font-family="Times,serif" font-size="14.00">Store</text>
<text text-anchor="middle" x="452" y="-22.8" font-family="Times,serif" font-size="14.00">dispatch</text>
</g>
<!-- action2 -->
<g id="node5" class="node"><title>action2</title>
<ellipse fill="none" stroke="black" cx="350" cy="-34" rx="34.3527" ry="18"/>
<text text-anchor="middle" x="350" y="-29.8" font-family="Times,serif" font-size="14.00">Action</text>
</g>
<!-- mid1&#45;&gt;action2 -->
<g id="edge3" class="edge"><title>mid1&#45;&gt;action2</title>
<path fill="none" stroke="black" d="M279.647,-34C288.088,-34 297.014,-34 305.551,-34"/>
<polygon fill="black" stroke="black" points="305.713,-37.5001 315.713,-34 305.713,-30.5001 305.713,-37.5001"/>
</g>
<!-- action2&#45;&gt;storedispatch -->
<g id="edge4" class="edge"><title>action2&#45;&gt;storedispatch</title>
<path fill="none" stroke="black" d="M384.299,-34C392.62,-34 401.638,-34 410.273,-34"/>
<polygon fill="black" stroke="black" points="410.545,-37.5001 420.545,-34 410.545,-30.5001 410.545,-37.5001"/>
</g>
</g>
</svg>
