<?xml version="1.0" encoding="UTF-8" standalone="no"?>
<!DOCTYPE svg PUBLIC "-//W3C//DTD SVG 1.1//EN"
 "http://www.w3.org/Graphics/SVG/1.1/DTD/svg11.dtd">
<!-- Generated by graphviz version 2.36.0 (20140111.2315)
 -->
<!-- Title: %3 Pages: 1 -->
<svg width="288pt" height="112pt"
 viewBox="0.00 0.00 288.00 112.00" xmlns="http://www.w3.org/2000/svg" xmlns:xlink="http://www.w3.org/1999/xlink">
<g id="graph0" class="graph" transform="scale(1 1) rotate(0) translate(4 108)">
<title>%3</title>
<!-- Currentstate -->
<g id="node1" class="node"><title>Currentstate</title>
<ellipse fill="none" stroke="black" cx="42" cy="-79" rx="41.6072" ry="25.4118"/>
<text text-anchor="middle" x="42" y="-81.8" font-family="Times,serif" font-size="14.00">Current</text>
<text text-anchor="middle" x="42" y="-67.8" font-family="Times,serif" font-size="14.00">state</text>
</g>
<!-- Reducer -->
<g id="node2" class="node"><title>Reducer</title>
<polygon fill="none" stroke="black" points="183.143,-66 120.857,-66 120.857,-30 183.143,-30 183.143,-66"/>
<text text-anchor="middle" x="152" y="-43.8" font-family="Times,serif" font-size="14.00">Reducer</text>
</g>
<!-- Currentstate&#45;&gt;Reducer -->
<g id="edge1" class="edge"><title>Currentstate&#45;&gt;Reducer</title>
<path fill="none" stroke="black" d="M79.8654,-68.4183C89.8564,-65.5505 100.72,-62.4321 110.881,-59.5156"/>
<polygon fill="black" stroke="black" points="112.103,-62.8064 120.749,-56.6832 110.171,-56.0781 112.103,-62.8064"/>
</g>
<!-- Newstate -->
<g id="node3" class="node"><title>Newstate</title>
<ellipse fill="none" stroke="black" cx="250" cy="-48" rx="30.0115" ry="25.4118"/>
<text text-anchor="middle" x="250" y="-50.8" font-family="Times,serif" font-size="14.00">New</text>
<text text-anchor="middle" x="250" y="-36.8" font-family="Times,serif" font-size="14.00">state</text>
</g>
<!-- Reducer&#45;&gt;Newstate -->
<g id="edge3" class="edge"><title>Reducer&#45;&gt;Newstate</title>
<path fill="none" stroke="black" d="M183.375,-48C191.745,-48 200.946,-48 209.741,-48"/>
<polygon fill="black" stroke="black" points="209.806,-51.5001 219.806,-48 209.806,-44.5001 209.806,-51.5001"/>
</g>
<!-- Action -->
<g id="node4" class="node"><title>Action</title>
<ellipse fill="none" stroke="black" cx="42" cy="-18" rx="34.3527" ry="18"/>
<text text-anchor="middle" x="42" y="-13.8" font-family="Times,serif" font-size="14.00">Action</text>
</g>
<!-- Action&#45;&gt;Reducer -->
<g id="edge2" class="edge"><title>Action&#45;&gt;Reducer</title>
<path fill="none" stroke="black" d="M72.5115,-26.1976C84.3388,-29.483 98.1547,-33.3207 110.87,-36.8528"/>
<polygon fill="black" stroke="black" points="110.2,-40.2992 120.772,-39.6034 112.074,-33.5546 110.2,-40.2992"/>
</g>
</g>
</svg>
