<?xml version="1.0" encoding="UTF-8" standalone="no"?>
<!DOCTYPE svg PUBLIC "-//W3C//DTD SVG 1.1//EN"
 "http://www.w3.org/Graphics/SVG/1.1/DTD/svg11.dtd">
<!-- Generated by graphviz version 2.36.0 (20140111.2315)
 -->
<!-- Title: %3 Pages: 1 -->
<svg width="432pt" height="44pt"
 viewBox="0.00 0.00 432.00 44.00" xmlns="http://www.w3.org/2000/svg" xmlns:xlink="http://www.w3.org/1999/xlink">
<g id="graph0" class="graph" transform="scale(1 1) rotate(0) translate(4 40)">
<title>%3</title>
<!-- thunk -->
<g id="node1" class="node"><title>thunk</title>
<ellipse fill="none" stroke="black" cx="56" cy="-18" rx="55.601" ry="18"/>
<text text-anchor="middle" x="56" y="-13.8" font-family="Times,serif" font-size="14.00">Redux thunk</text>
</g>
<!-- middleware -->
<g id="node2" class="node"><title>middleware</title>
<ellipse fill="none" stroke="black" cx="221" cy="-18" rx="52.6693" ry="18"/>
<text text-anchor="middle" x="221" y="-13.8" font-family="Times,serif" font-size="14.00">Middleware</text>
</g>
<!-- thunk&#45;&gt;middleware -->
<g id="edge1" class="edge"><title>thunk&#45;&gt;middleware</title>
<path fill="none" stroke="black" d="M111.73,-18C126.459,-18 142.499,-18 157.611,-18"/>
<polygon fill="black" stroke="black" points="157.897,-21.5001 167.897,-18 157.897,-14.5001 157.897,-21.5001"/>
<text text-anchor="middle" x="140" y="-20.8" font-family="Times,serif" font-size="14.00">is a</text>
</g>
<!-- enhancer -->
<g id="node3" class="node"><title>enhancer</title>
<ellipse fill="none" stroke="black" cx="380" cy="-18" rx="43.4887" ry="18"/>
<text text-anchor="middle" x="380" y="-13.8" font-family="Times,serif" font-size="14.00">Enhancer</text>
</g>
<!-- middleware&#45;&gt;enhancer -->
<g id="edge2" class="edge"><title>middleware&#45;&gt;enhancer</title>
<path fill="none" stroke="black" d="M273.843,-18C290.633,-18 309.27,-18 326.133,-18"/>
<polygon fill="black" stroke="black" points="326.372,-21.5001 336.372,-18 326.372,-14.5001 326.372,-21.5001"/>
<text text-anchor="middle" x="305" y="-20.8" font-family="Times,serif" font-size="14.00">is an</text>
</g>
</g>
</svg>
