<?xml version="1.0" encoding="UTF-8" standalone="no"?>
<!DOCTYPE svg PUBLIC "-//W3C//DTD SVG 1.1//EN"
 "http://www.w3.org/Graphics/SVG/1.1/DTD/svg11.dtd">
<!-- Generated by graphviz version 2.36.0 (20140111.2315)
 -->
<!-- Title: %3 Pages: 1 -->
<svg width="402pt" height="81pt"
 viewBox="0.00 0.00 402.00 81.00" xmlns="http://www.w3.org/2000/svg" xmlns:xlink="http://www.w3.org/1999/xlink">
<g id="graph0" class="graph" transform="scale(1 1) rotate(0) translate(4 77)">
<title>%3</title>
<!-- Store -->
<g id="node1" class="node"><title>Store</title>
<ellipse fill="none" stroke="black" cx="29" cy="-25" rx="28.5497" ry="18"/>
<text text-anchor="middle" x="29" y="-20.8" font-family="Times,serif" font-size="14.00">Store</text>
</g>
<!-- Components -->
<g id="node2" class="node"><title>Components</title>
<ellipse fill="none" stroke="black" cx="191" cy="-55" rx="54.6334" ry="18"/>
<text text-anchor="middle" x="191" y="-50.8" font-family="Times,serif" font-size="14.00">Components</text>
</g>
<!-- Store&#45;&gt;Components -->
<g id="edge1" class="edge"><title>Store&#45;&gt;Components</title>
<path fill="none" stroke="black" d="M56.7804,-30.0213C77.5139,-33.9089 106.976,-39.4329 132.923,-44.2981"/>
<polygon fill="black" stroke="black" points="132.568,-47.7925 143.042,-46.1954 133.858,-40.9124 132.568,-47.7925"/>
<text text-anchor="middle" x="97" y="-42.8" font-family="Times,serif" font-size="14.00">notifies</text>
</g>
<!-- Actions -->
<g id="node3" class="node"><title>Actions</title>
<ellipse fill="none" stroke="black" cx="351" cy="-25" rx="42.7828" ry="25.4118"/>
<text text-anchor="middle" x="351" y="-27.8" font-family="Times,serif" font-size="14.00">Action</text>
<text text-anchor="middle" x="351" y="-13.8" font-family="Times,serif" font-size="14.00">creators</text>
</g>
<!-- Components&#45;&gt;Actions -->
<g id="edge2" class="edge"><title>Components&#45;&gt;Actions</title>
<path fill="none" stroke="black" d="M238.977,-46.0802C258.266,-42.4179 280.619,-38.1735 300.191,-34.4573"/>
<polygon fill="black" stroke="black" points="300.97,-37.872 310.142,-32.568 299.664,-30.9949 300.97,-37.872"/>
<text text-anchor="middle" x="277" y="-42.8" font-family="Times,serif" font-size="14.00">calls</text>
</g>
<!-- Actions&#45;&gt;Store -->
<g id="edge3" class="edge"><title>Actions&#45;&gt;Store</title>
<path fill="none" stroke="black" d="M309.081,-19.6657C289.955,-17.4311 266.851,-15.0996 246,-14 197.179,-11.4253 184.824,-11.4735 136,-14 113.185,-15.1806 87.719,-17.7814 67.4666,-20.1577"/>
<polygon fill="black" stroke="black" points="66.9024,-16.7003 57.3928,-21.3712 67.7397,-23.65 66.9024,-16.7003"/>
<text text-anchor="middle" x="191" y="-16.8" font-family="Times,serif" font-size="14.00">update</text>
</g>
</g>
</svg>
