<?xml version="1.0" encoding="UTF-8" standalone="no"?>
<!DOCTYPE svg PUBLIC "-//W3C//DTD SVG 1.1//EN"
 "http://www.w3.org/Graphics/SVG/1.1/DTD/svg11.dtd">
<!-- Generated by graphviz version 2.36.0 (20140111.2315)
 -->
<!-- Title: %3 Pages: 1 -->
<svg width="548pt" height="206pt"
 viewBox="0.00 0.00 548.00 206.00" xmlns="http://www.w3.org/2000/svg" xmlns:xlink="http://www.w3.org/1999/xlink">
<g id="graph0" class="graph" transform="scale(1 1) rotate(0) translate(4 202)">
<title>%3</title>
<g id="clust1" class="cluster"><title>cluster_withmid</title>
<polygon fill="none" stroke="black" points="188,-8 188,-190 532,-190 532,-8 188,-8"/>
<text text-anchor="middle" x="360" y="-174.8" font-family="Times,serif" font-size="14.00">Middlewared dispatch</text>
</g>
<!-- actioncreator -->
<g id="node1" class="node"><title>actioncreator</title>
<polygon fill="none" stroke="black" points="55.3557,-160 0.644341,-160 0.644341,-124 55.3557,-124 55.3557,-160"/>
<text text-anchor="middle" x="28" y="-144.8" font-family="Times,serif" font-size="14.00">Action</text>
<text text-anchor="middle" x="28" y="-130.8" font-family="Times,serif" font-size="14.00">creator</text>
</g>
<!-- action1 -->
<g id="node2" class="node"><title>action1</title>
<ellipse fill="none" stroke="black" cx="126" cy="-142" rx="34.3527" ry="18"/>
<text text-anchor="middle" x="126" y="-137.8" font-family="Times,serif" font-size="14.00">Action</text>
</g>
<!-- actioncreator&#45;&gt;action1 -->
<g id="edge1" class="edge"><title>actioncreator&#45;&gt;action1</title>
<path fill="none" stroke="black" d="M55.4865,-142C63.5443,-142 72.6219,-142 81.4929,-142"/>
<polygon fill="black" stroke="black" points="81.7385,-145.5 91.7385,-142 81.7385,-138.5 81.7385,-145.5"/>
</g>
<!-- mid1 -->
<g id="node4" class="node"><title>mid1</title>
<polygon fill="none" stroke="black" points="290.142,-160 195.858,-160 195.858,-124 290.142,-124 290.142,-160"/>
<text text-anchor="middle" x="243" y="-137.8" font-family="Times,serif" font-size="14.00">Middleware 1</text>
</g>
<!-- action1&#45;&gt;mid1 -->
<g id="edge2" class="edge"><title>action1&#45;&gt;mid1</title>
<path fill="none" stroke="black" d="M160.263,-142C168.177,-142 176.842,-142 185.477,-142"/>
<polygon fill="black" stroke="black" points="185.554,-145.5 195.554,-142 185.554,-138.5 185.554,-145.5"/>
</g>
<!-- storedispatch -->
<g id="node3" class="node"><title>storedispatch</title>
<polygon fill="none" stroke="black" points="508.156,-52 445.844,-52 445.844,-16 508.156,-16 508.156,-52"/>
<text text-anchor="middle" x="477" y="-36.8" font-family="Times,serif" font-size="14.00">Store</text>
<text text-anchor="middle" x="477" y="-22.8" font-family="Times,serif" font-size="14.00">dispatch</text>
</g>
<!-- action2 -->
<g id="node7" class="node"><title>action2</title>
<ellipse fill="none" stroke="black" cx="360" cy="-142" rx="34.3527" ry="18"/>
<text text-anchor="middle" x="360" y="-137.8" font-family="Times,serif" font-size="14.00">Action</text>
</g>
<!-- mid1&#45;&gt;action2 -->
<g id="edge3" class="edge"><title>mid1&#45;&gt;action2</title>
<path fill="none" stroke="black" d="M290.112,-142C298.46,-142 307.142,-142 315.415,-142"/>
<polygon fill="black" stroke="black" points="315.619,-145.5 325.619,-142 315.619,-138.5 315.619,-145.5"/>
</g>
<!-- mid2 -->
<g id="node5" class="node"><title>mid2</title>
<polygon fill="none" stroke="black" points="524.142,-133 429.858,-133 429.858,-97 524.142,-97 524.142,-133"/>
<text text-anchor="middle" x="477" y="-110.8" font-family="Times,serif" font-size="14.00">Middleware 2</text>
</g>
<!-- action3 -->
<g id="node8" class="node"><title>action3</title>
<ellipse fill="none" stroke="black" cx="360" cy="-88" rx="34.3527" ry="18"/>
<text text-anchor="middle" x="360" y="-83.8" font-family="Times,serif" font-size="14.00">Action</text>
</g>
<!-- mid2&#45;&gt;action3 -->
<g id="edge5" class="edge"><title>mid2&#45;&gt;action3</title>
<path fill="none" stroke="black" d="M429.733,-104.137C420.387,-101.943 410.63,-99.6522 401.501,-97.5089"/>
<polygon fill="black" stroke="black" points="402.051,-94.043 391.516,-95.1646 400.451,-100.858 402.051,-94.043"/>
</g>
<!-- mid3 -->
<g id="node6" class="node"><title>mid3</title>
<polygon fill="none" stroke="black" points="290.142,-79 195.858,-79 195.858,-43 290.142,-43 290.142,-79"/>
<text text-anchor="middle" x="243" y="-56.8" font-family="Times,serif" font-size="14.00">Middleware 3</text>
</g>
<!-- action4 -->
<g id="node9" class="node"><title>action4</title>
<ellipse fill="none" stroke="black" cx="360" cy="-34" rx="34.3527" ry="18"/>
<text text-anchor="middle" x="360" y="-29.8" font-family="Times,serif" font-size="14.00">Action</text>
</g>
<!-- mid3&#45;&gt;action4 -->
<g id="edge7" class="edge"><title>mid3&#45;&gt;action4</title>
<path fill="none" stroke="black" d="M290.112,-50.1736C299.465,-47.9778 309.236,-45.6836 318.383,-43.5363"/>
<polygon fill="black" stroke="black" points="319.452,-46.8804 328.387,-41.1873 317.852,-40.0657 319.452,-46.8804"/>
</g>
<!-- action2&#45;&gt;mid2 -->
<g id="edge4" class="edge"><title>action2&#45;&gt;mid2</title>
<path fill="none" stroke="black" d="M391.516,-134.835C400.299,-132.773 410.169,-130.456 419.982,-128.152"/>
<polygon fill="black" stroke="black" points="420.797,-131.556 429.733,-125.863 419.197,-124.741 420.797,-131.556"/>
</g>
<!-- action3&#45;&gt;mid3 -->
<g id="edge6" class="edge"><title>action3&#45;&gt;mid3</title>
<path fill="none" stroke="black" d="M328.387,-80.8127C319.585,-78.746 309.697,-76.4245 299.873,-74.118"/>
<polygon fill="black" stroke="black" points="300.648,-70.7048 290.112,-71.8264 299.048,-77.5195 300.648,-70.7048"/>
</g>
<!-- action4&#45;&gt;storedispatch -->
<g id="edge8" class="edge"><title>action4&#45;&gt;storedispatch</title>
<path fill="none" stroke="black" d="M394.263,-34C407.161,-34 422.051,-34 435.559,-34"/>
<polygon fill="black" stroke="black" points="435.564,-37.5001 445.564,-34 435.564,-30.5001 435.564,-37.5001"/>
</g>
</g>
</svg>
