<?xml version="1.0" encoding="UTF-8" standalone="no"?>
<!DOCTYPE svg PUBLIC "-//W3C//DTD SVG 1.1//EN"
 "http://www.w3.org/Graphics/SVG/1.1/DTD/svg11.dtd">
<!-- Generated by graphviz version 2.36.0 (20140111.2315)
 -->
<!-- Title: %3 Pages: 1 -->
<svg width="542pt" height="98pt"
 viewBox="0.00 0.00 542.00 98.00" xmlns="http://www.w3.org/2000/svg" xmlns:xlink="http://www.w3.org/1999/xlink">
<g id="graph0" class="graph" transform="scale(1 1) rotate(0) translate(4 94)">
<title>%3</title>
<!-- component -->
<g id="node1" class="node"><title>component</title>
<polygon fill="none" stroke="black" points="174.207,-63 95.7927,-63 95.7927,-27 174.207,-27 174.207,-63"/>
<text text-anchor="middle" x="135" y="-40.8" font-family="Times,serif" font-size="14.00">component</text>
</g>
<!-- virtualDOM -->
<g id="node5" class="node"><title>virtualDOM</title>
<ellipse fill="none" stroke="black" cx="264" cy="-45" rx="53.6557" ry="18"/>
<text text-anchor="middle" x="264" y="-40.8" font-family="Times,serif" font-size="14.00">virtualDOM</text>
</g>
<!-- component&#45;&gt;virtualDOM -->
<g id="edge3" class="edge"><title>component&#45;&gt;virtualDOM</title>
<path fill="none" stroke="black" d="M174.104,-45C182.191,-45 190.937,-45 199.677,-45"/>
<polygon fill="black" stroke="black" points="199.897,-48.5001 209.897,-45 199.896,-41.5001 199.897,-48.5001"/>
</g>
<!-- ReactDOM -->
<g id="node2" class="node"><title>ReactDOM</title>
<polygon fill="none" stroke="black" points="435.039,-63 354.961,-63 354.961,-27 435.039,-27 435.039,-63"/>
<text text-anchor="middle" x="395" y="-40.8" font-family="Times,serif" font-size="14.00">ReactDOM</text>
</g>
<!-- DOM -->
<g id="node6" class="node"><title>DOM</title>
<ellipse fill="none" stroke="black" cx="503" cy="-45" rx="30.988" ry="18"/>
<text text-anchor="middle" x="503" y="-40.8" font-family="Times,serif" font-size="14.00">DOM</text>
</g>
<!-- ReactDOM&#45;&gt;DOM -->
<g id="edge5" class="edge"><title>ReactDOM&#45;&gt;DOM</title>
<path fill="none" stroke="black" d="M435.169,-45C443.806,-45 452.971,-45 461.653,-45"/>
<polygon fill="black" stroke="black" points="461.938,-48.5001 471.938,-45 461.938,-41.5001 461.938,-48.5001"/>
</g>
<!-- state -->
<g id="node3" class="node"><title>state</title>
<ellipse fill="none" stroke="black" cx="30" cy="-72" rx="27" ry="18"/>
<text text-anchor="middle" x="30" y="-67.8" font-family="Times,serif" font-size="14.00">state</text>
</g>
<!-- state&#45;&gt;component -->
<g id="edge1" class="edge"><title>state&#45;&gt;component</title>
<path fill="none" stroke="black" d="M55.4096,-65.6014C64.5161,-63.2142 75.2024,-60.413 85.7098,-57.6586"/>
<polygon fill="black" stroke="black" points="86.8861,-60.9686 95.6718,-55.0472 85.1111,-54.1974 86.8861,-60.9686"/>
</g>
<!-- props -->
<g id="node4" class="node"><title>props</title>
<ellipse fill="none" stroke="black" cx="30" cy="-18" rx="29.5189" ry="18"/>
<text text-anchor="middle" x="30" y="-13.8" font-family="Times,serif" font-size="14.00">props</text>
</g>
<!-- props&#45;&gt;component -->
<g id="edge2" class="edge"><title>props&#45;&gt;component</title>
<path fill="none" stroke="black" d="M57.5251,-24.9532C66.1074,-27.2029 75.9106,-29.7727 85.5694,-32.3046"/>
<polygon fill="black" stroke="black" points="84.9646,-35.7643 95.5253,-34.9144 86.7396,-28.993 84.9646,-35.7643"/>
</g>
<!-- virtualDOM&#45;&gt;ReactDOM -->
<g id="edge4" class="edge"><title>virtualDOM&#45;&gt;ReactDOM</title>
<path fill="none" stroke="black" d="M317.841,-45C326.743,-45 335.952,-45 344.758,-45"/>
<polygon fill="black" stroke="black" points="344.868,-48.5001 354.868,-45 344.868,-41.5001 344.868,-48.5001"/>
</g>
</g>
</svg>
