<?xml version="1.0" encoding="UTF-8" standalone="no"?>
<!DOCTYPE svg PUBLIC "-//W3C//DTD SVG 1.1//EN"
 "http://www.w3.org/Graphics/SVG/1.1/DTD/svg11.dtd">
<!-- Generated by graphviz version 2.36.0 (20140111.2315)
 -->
<!-- Title: %3 Pages: 1 -->
<svg width="602pt" height="206pt"
 viewBox="0.00 0.00 602.00 206.00" xmlns="http://www.w3.org/2000/svg" xmlns:xlink="http://www.w3.org/1999/xlink">
<g id="graph0" class="graph" transform="scale(1 1) rotate(0) translate(4 202)">
<title>%3</title>
<!-- component -->
<g id="node1" class="node"><title>component</title>
<polygon fill="none" stroke="black" points="174.207,-117 95.7927,-117 95.7927,-81 174.207,-81 174.207,-117"/>
<text text-anchor="middle" x="135" y="-94.8" font-family="Times,serif" font-size="14.00">component</text>
</g>
<!-- virtualDOM -->
<g id="node8" class="node"><title>virtualDOM</title>
<ellipse fill="none" stroke="black" cx="264" cy="-99" rx="53.6557" ry="18"/>
<text text-anchor="middle" x="264" y="-94.8" font-family="Times,serif" font-size="14.00">virtualDOM</text>
</g>
<!-- component&#45;&gt;virtualDOM -->
<g id="edge3" class="edge"><title>component&#45;&gt;virtualDOM</title>
<path fill="none" stroke="black" d="M174.104,-99C182.191,-99 190.937,-99 199.677,-99"/>
<polygon fill="black" stroke="black" points="199.897,-102.5 209.897,-99 199.896,-95.5001 199.897,-102.5"/>
</g>
<!-- ReactDOM -->
<g id="node2" class="node"><title>ReactDOM</title>
<polygon fill="none" stroke="black" points="453.039,-198 372.961,-198 372.961,-162 453.039,-162 453.039,-198"/>
<text text-anchor="middle" x="413" y="-175.8" font-family="Times,serif" font-size="14.00">ReactDOM</text>
</g>
<!-- DOM -->
<g id="node9" class="node"><title>DOM</title>
<ellipse fill="none" stroke="black" cx="551" cy="-180" rx="30.988" ry="18"/>
<text text-anchor="middle" x="551" y="-175.8" font-family="Times,serif" font-size="14.00">DOM</text>
</g>
<!-- ReactDOM&#45;&gt;DOM -->
<g id="edge5" class="edge"><title>ReactDOM&#45;&gt;DOM</title>
<path fill="none" stroke="black" d="M453.337,-180C471.043,-180 491.923,-180 509.737,-180"/>
<polygon fill="black" stroke="black" points="509.825,-183.5 519.825,-180 509.825,-176.5 509.825,-183.5"/>
</g>
<!-- ReactDOMServer -->
<g id="node3" class="node"><title>ReactDOMServer</title>
<polygon fill="none" stroke="black" points="471.576,-144 354.424,-144 354.424,-108 471.576,-108 471.576,-144"/>
<text text-anchor="middle" x="413" y="-121.8" font-family="Times,serif" font-size="14.00">ReactDOMServer</text>
</g>
<!-- string -->
<g id="node10" class="node"><title>string</title>
<ellipse fill="none" stroke="black" cx="551" cy="-126" rx="30.0035" ry="18"/>
<text text-anchor="middle" x="551" y="-121.8" font-family="Times,serif" font-size="14.00">string</text>
</g>
<!-- ReactDOMServer&#45;&gt;string -->
<g id="edge7" class="edge"><title>ReactDOMServer&#45;&gt;string</title>
<path fill="none" stroke="black" d="M471.676,-126C484.667,-126 498.172,-126 510.236,-126"/>
<polygon fill="black" stroke="black" points="510.417,-129.5 520.417,-126 510.417,-122.5 510.417,-129.5"/>
</g>
<!-- ReactSVG -->
<g id="node4" class="node"><title>ReactSVG</title>
<polygon fill="none" stroke="black" points="450.876,-90 375.124,-90 375.124,-54 450.876,-54 450.876,-90"/>
<text text-anchor="middle" x="413" y="-67.8" font-family="Times,serif" font-size="14.00">ReactSVG</text>
</g>
<!-- SVG -->
<g id="node11" class="node"><title>SVG</title>
<ellipse fill="none" stroke="black" cx="551" cy="-72" rx="27.5976" ry="18"/>
<text text-anchor="middle" x="551" y="-67.8" font-family="Times,serif" font-size="14.00">SVG</text>
</g>
<!-- ReactSVG&#45;&gt;SVG -->
<g id="edge9" class="edge"><title>ReactSVG&#45;&gt;SVG</title>
<path fill="none" stroke="black" d="M451.163,-72C470.274,-72 493.508,-72 512.646,-72"/>
<polygon fill="black" stroke="black" points="512.805,-75.5001 522.805,-72 512.805,-68.5001 512.805,-75.5001"/>
</g>
<!-- ReactNative -->
<g id="node5" class="node"><title>ReactNative</title>
<polygon fill="none" stroke="black" points="455.687,-36 370.313,-36 370.313,-0 455.687,-0 455.687,-36"/>
<text text-anchor="middle" x="413" y="-13.8" font-family="Times,serif" font-size="14.00">ReactNative</text>
</g>
<!-- NativeUI -->
<g id="node12" class="node"><title>NativeUI</title>
<ellipse fill="none" stroke="black" cx="551" cy="-18" rx="43.0215" ry="18"/>
<text text-anchor="middle" x="551" y="-13.8" font-family="Times,serif" font-size="14.00">NativeUI</text>
</g>
<!-- ReactNative&#45;&gt;NativeUI -->
<g id="edge11" class="edge"><title>ReactNative&#45;&gt;NativeUI</title>
<path fill="none" stroke="black" d="M455.914,-18C468.975,-18 483.549,-18 497.252,-18"/>
<polygon fill="black" stroke="black" points="497.521,-21.5001 507.521,-18 497.521,-14.5001 497.521,-21.5001"/>
</g>
<!-- state -->
<g id="node6" class="node"><title>state</title>
<ellipse fill="none" stroke="black" cx="30" cy="-126" rx="27" ry="18"/>
<text text-anchor="middle" x="30" y="-121.8" font-family="Times,serif" font-size="14.00">state</text>
</g>
<!-- state&#45;&gt;component -->
<g id="edge1" class="edge"><title>state&#45;&gt;component</title>
<path fill="none" stroke="black" d="M55.4096,-119.601C64.5161,-117.214 75.2024,-114.413 85.7098,-111.659"/>
<polygon fill="black" stroke="black" points="86.8861,-114.969 95.6718,-109.047 85.1111,-108.197 86.8861,-114.969"/>
</g>
<!-- props -->
<g id="node7" class="node"><title>props</title>
<ellipse fill="none" stroke="black" cx="30" cy="-72" rx="29.5189" ry="18"/>
<text text-anchor="middle" x="30" y="-67.8" font-family="Times,serif" font-size="14.00">props</text>
</g>
<!-- props&#45;&gt;component -->
<g id="edge2" class="edge"><title>props&#45;&gt;component</title>
<path fill="none" stroke="black" d="M57.5251,-78.9532C66.1074,-81.2029 75.9106,-83.7727 85.5694,-86.3046"/>
<polygon fill="black" stroke="black" points="84.9646,-89.7643 95.5253,-88.9144 86.7396,-82.993 84.9646,-89.7643"/>
</g>
<!-- virtualDOM&#45;&gt;ReactDOM -->
<g id="edge4" class="edge"><title>virtualDOM&#45;&gt;ReactDOM</title>
<path fill="none" stroke="black" d="M289.513,-114.872C307.156,-126.048 331.681,-141.08 354,-153 357.082,-154.646 360.281,-156.295 363.524,-157.921"/>
<polygon fill="black" stroke="black" points="362.193,-161.166 372.713,-162.424 365.273,-154.881 362.193,-161.166"/>
</g>
<!-- virtualDOM&#45;&gt;ReactDOMServer -->
<g id="edge6" class="edge"><title>virtualDOM&#45;&gt;ReactDOMServer</title>
<path fill="none" stroke="black" d="M311.512,-107.543C321.944,-109.459 333.22,-111.53 344.317,-113.568"/>
<polygon fill="black" stroke="black" points="343.961,-117.062 354.429,-115.426 345.226,-110.177 343.961,-117.062"/>
</g>
<!-- virtualDOM&#45;&gt;ReactSVG -->
<g id="edge8" class="edge"><title>virtualDOM&#45;&gt;ReactSVG</title>
<path fill="none" stroke="black" d="M311.512,-90.457C328.508,-87.3353 347.74,-83.8028 364.796,-80.6701"/>
<polygon fill="black" stroke="black" points="365.892,-84.0274 375.095,-78.7784 364.628,-77.1426 365.892,-84.0274"/>
</g>
<!-- virtualDOM&#45;&gt;ReactNative -->
<g id="edge10" class="edge"><title>virtualDOM&#45;&gt;ReactNative</title>
<path fill="none" stroke="black" d="M289.513,-83.1278C307.156,-71.952 331.681,-56.9196 354,-45 356.841,-43.4826 359.783,-41.9625 362.766,-40.4598"/>
<polygon fill="black" stroke="black" points="364.353,-43.5797 371.78,-36.024 361.263,-37.299 364.353,-43.5797"/>
</g>
</g>
</svg>
