<?xml version="1.0" encoding="UTF-8" standalone="no"?>
<!DOCTYPE svg PUBLIC "-//W3C//DTD SVG 1.1//EN"
 "http://www.w3.org/Graphics/SVG/1.1/DTD/svg11.dtd">
<!-- Generated by graphviz version 2.36.0 (20140111.2315)
 -->
<!-- Title: %3 Pages: 1 -->
<svg width="666pt" height="98pt"
 viewBox="0.00 0.00 666.00 98.00" xmlns="http://www.w3.org/2000/svg" xmlns:xlink="http://www.w3.org/1999/xlink">
<g id="graph0" class="graph" transform="scale(1 1) rotate(0) translate(4 94)">
<title>%3</title>
<!-- numQuotesSelector -->
<g id="node1" class="node"><title>numQuotesSelector</title>
<polygon fill="none" stroke="black" points="216.422,-90 89.5784,-90 89.5784,-54 216.422,-54 216.422,-90"/>
<text text-anchor="middle" x="153" y="-67.8" font-family="Times,serif" font-size="14.00">numQuotesSelector</text>
</g>
<!-- numberOfQuotes -->
<g id="node5" class="node"><title>numberOfQuotes</title>
<ellipse fill="none" stroke="black" cx="328" cy="-72" rx="71.5117" ry="18"/>
<text text-anchor="middle" x="328" y="-67.8" font-family="Times,serif" font-size="14.00">numberOfQuotes</text>
</g>
<!-- numQuotesSelector&#45;&gt;numberOfQuotes -->
<g id="edge2" class="edge"><title>numQuotesSelector&#45;&gt;numberOfQuotes</title>
<path fill="none" stroke="black" d="M216.457,-72C226.184,-72 236.351,-72 246.412,-72"/>
<polygon fill="black" stroke="black" points="246.416,-75.5001 256.416,-72 246.416,-68.5001 246.416,-75.5001"/>
</g>
<!-- timeSelector -->
<g id="node2" class="node"><title>timeSelector</title>
<polygon fill="none" stroke="black" points="196.252,-36 109.748,-36 109.748,-0 196.252,-0 196.252,-36"/>
<text text-anchor="middle" x="153" y="-13.8" font-family="Times,serif" font-size="14.00">timeSelector</text>
</g>
<!-- numberOfSeconds -->
<g id="node6" class="node"><title>numberOfSeconds</title>
<ellipse fill="none" stroke="black" cx="328" cy="-18" rx="75.8553" ry="18"/>
<text text-anchor="middle" x="328" y="-13.8" font-family="Times,serif" font-size="14.00">numberOfSeconds</text>
</g>
<!-- timeSelector&#45;&gt;numberOfSeconds -->
<g id="edge5" class="edge"><title>timeSelector&#45;&gt;numberOfSeconds</title>
<path fill="none" stroke="black" d="M196.321,-18C210.106,-18 225.938,-18 241.717,-18"/>
<polygon fill="black" stroke="black" points="242.055,-21.5001 252.055,-18 242.055,-14.5001 242.055,-21.5001"/>
</g>
<!-- averageSelector -->
<g id="node3" class="node"><title>averageSelector</title>
<polygon fill="none" stroke="black" points="545.887,-63 440.113,-63 440.113,-27 545.887,-27 545.887,-63"/>
<text text-anchor="middle" x="493" y="-40.8" font-family="Times,serif" font-size="14.00">averageSelector</text>
</g>
<!-- average -->
<g id="node7" class="node"><title>average</title>
<ellipse fill="none" stroke="black" cx="620" cy="-45" rx="37.6919" ry="18"/>
<text text-anchor="middle" x="620" y="-40.8" font-family="Times,serif" font-size="14.00">average</text>
</g>
<!-- averageSelector&#45;&gt;average -->
<g id="edge7" class="edge"><title>averageSelector&#45;&gt;average</title>
<path fill="none" stroke="black" d="M545.925,-45C554.604,-45 563.564,-45 572.108,-45"/>
<polygon fill="black" stroke="black" points="572.276,-48.5001 582.276,-45 572.276,-41.5001 572.276,-48.5001"/>
</g>
<!-- state -->
<g id="node4" class="node"><title>state</title>
<ellipse fill="none" stroke="black" cx="27" cy="-45" rx="27" ry="18"/>
<text text-anchor="middle" x="27" y="-40.8" font-family="Times,serif" font-size="14.00">state</text>
</g>
<!-- state&#45;&gt;numQuotesSelector -->
<g id="edge1" class="edge"><title>state&#45;&gt;numQuotesSelector</title>
<path fill="none" stroke="black" d="M52.7952,-50.399C60.8523,-52.1533 70.2397,-54.1974 79.9654,-56.3151"/>
<polygon fill="black" stroke="black" points="79.2515,-59.7415 89.7673,-58.4493 80.7409,-52.9018 79.2515,-59.7415"/>
</g>
<!-- state&#45;&gt;timeSelector -->
<g id="edge4" class="edge"><title>state&#45;&gt;timeSelector</title>
<path fill="none" stroke="black" d="M52.7952,-39.601C66.2569,-36.6699 83.4319,-32.9302 99.6944,-29.3891"/>
<polygon fill="black" stroke="black" points="100.634,-32.7665 109.661,-27.219 99.1451,-25.9268 100.634,-32.7665"/>
</g>
<!-- numberOfQuotes&#45;&gt;averageSelector -->
<g id="edge3" class="edge"><title>numberOfQuotes&#45;&gt;averageSelector</title>
<path fill="none" stroke="black" d="M388.308,-62.176C402.005,-59.9071 416.608,-57.4883 430.401,-55.2036"/>
<polygon fill="black" stroke="black" points="430.983,-58.655 440.276,-53.5677 429.839,-51.7491 430.983,-58.655"/>
</g>
<!-- numberOfSeconds&#45;&gt;averageSelector -->
<g id="edge6" class="edge"><title>numberOfSeconds&#45;&gt;averageSelector</title>
<path fill="none" stroke="black" d="M390.623,-28.2075C403.499,-30.3403 417.08,-32.5899 429.97,-34.7251"/>
<polygon fill="black" stroke="black" points="429.696,-38.2273 440.134,-36.4086 430.84,-31.3214 429.696,-38.2273"/>
</g>
</g>
</svg>
