<?xml version="1.0" encoding="UTF-8" standalone="no"?>
<!DOCTYPE svg PUBLIC "-//W3C//DTD SVG 1.1//EN"
 "http://www.w3.org/Graphics/SVG/1.1/DTD/svg11.dtd">
<!-- Generated by graphviz version 2.36.0 (20140111.2315)
 -->
<!-- Title: %3 Pages: 1 -->
<svg width="372pt" height="152pt"
 viewBox="0.00 0.00 372.00 152.00" xmlns="http://www.w3.org/2000/svg" xmlns:xlink="http://www.w3.org/1999/xlink">
<g id="graph0" class="graph" transform="scale(1 1) rotate(0) translate(4 148)">
<title>%3</title>
<!-- state -->
<g id="node1" class="node"><title>state</title>
<ellipse fill="none" stroke="black" cx="89" cy="-126" rx="75.838" ry="18"/>
<text text-anchor="middle" x="89" y="-121.8" font-family="Times,serif" font-size="14.00">mapped from state</text>
</g>
<!-- bake -->
<g id="node4" class="node"><title>bake</title>
<polygon fill="none" stroke="black" points="268,-90 214,-90 214,-54 268,-54 268,-90"/>
<text text-anchor="middle" x="241" y="-67.8" font-family="Times,serif" font-size="14.00">bake</text>
</g>
<!-- state&#45;&gt;bake -->
<g id="edge1" class="edge"><title>state&#45;&gt;bake</title>
<path fill="none" stroke="black" d="M138.284,-112.26C151.278,-108.271 165.26,-103.711 178,-99 186.641,-95.8047 195.809,-92.0315 204.371,-88.3348"/>
<polygon fill="black" stroke="black" points="205.97,-91.4551 213.718,-84.2286 203.155,-85.0462 205.97,-91.4551"/>
</g>
<!-- dispatch -->
<g id="node2" class="node"><title>dispatch</title>
<ellipse fill="none" stroke="black" cx="89" cy="-72" rx="89.3687" ry="18"/>
<text text-anchor="middle" x="89" y="-67.8" font-family="Times,serif" font-size="14.00">mapped from dispatch</text>
</g>
<!-- dispatch&#45;&gt;bake -->
<g id="edge2" class="edge"><title>dispatch&#45;&gt;bake</title>
<path fill="none" stroke="black" d="M178.556,-72C187.365,-72 195.916,-72 203.7,-72"/>
<polygon fill="black" stroke="black" points="203.793,-75.5001 213.793,-72 203.793,-68.5001 203.793,-75.5001"/>
</g>
<!-- parent -->
<g id="node3" class="node"><title>parent</title>
<ellipse fill="none" stroke="black" cx="89" cy="-18" rx="77.283" ry="18"/>
<text text-anchor="middle" x="89" y="-13.8" font-family="Times,serif" font-size="14.00">passed from parent</text>
</g>
<!-- parent&#45;&gt;bake -->
<g id="edge3" class="edge"><title>parent&#45;&gt;bake</title>
<path fill="none" stroke="black" d="M138.743,-31.8814C151.607,-35.8365 165.41,-40.344 178,-45 186.641,-48.1953 195.809,-51.9685 204.371,-55.6652"/>
<polygon fill="black" stroke="black" points="203.155,-58.9538 213.718,-59.7714 205.97,-52.5449 203.155,-58.9538"/>
</g>
<!-- props -->
<g id="node5" class="node"><title>props</title>
<ellipse fill="none" stroke="black" cx="334" cy="-72" rx="29.5189" ry="18"/>
<text text-anchor="middle" x="334" y="-67.8" font-family="Times,serif" font-size="14.00">props</text>
</g>
<!-- bake&#45;&gt;props -->
<g id="edge4" class="edge"><title>bake&#45;&gt;props</title>
<path fill="none" stroke="black" d="M268.321,-72C276.395,-72 285.455,-72 294.18,-72"/>
<polygon fill="black" stroke="black" points="294.189,-75.5001 304.189,-72 294.189,-68.5001 294.189,-75.5001"/>
</g>
</g>
</svg>
