<?xml version="1.0" encoding="UTF-8" standalone="no"?>
<!DOCTYPE svg PUBLIC "-//W3C//DTD SVG 1.1//EN"
 "http://www.w3.org/Graphics/SVG/1.1/DTD/svg11.dtd">
<!-- Generated by graphviz version 2.36.0 (20140111.2315)
 -->
<!-- Title: %3 Pages: 1 -->
<svg width="880pt" height="126pt"
 viewBox="0.00 0.00 880.00 126.00" xmlns="http://www.w3.org/2000/svg" xmlns:xlink="http://www.w3.org/1999/xlink">
<g id="graph0" class="graph" transform="scale(1 1) rotate(0) translate(4 122)">
<title>%3</title>
<!-- stageA -->
<g id="node1" class="node"><title>stageA</title>
<ellipse fill="none" stroke="black" stroke-dasharray="5,2" cx="50" cy="-93" rx="44.0569" ry="25.4118"/>
<text text-anchor="middle" x="50" y="-95.8" font-family="Times,serif" font-size="14.00">Stage &#45;1</text>
<text text-anchor="middle" x="50" y="-81.8" font-family="Times,serif" font-size="14.00">Idea</text>
</g>
<!-- stageAdesc -->
<g id="node2" class="node"><title>stageAdesc</title>
<polygon fill="none" stroke="black" stroke-dasharray="5,2" points="99.9795,-50 0.0205057,-50 0.0205057,-14 99.9795,-14 99.9795,-50"/>
<text text-anchor="middle" x="50" y="-34.8" font-family="Times,serif" font-size="14.00">Someone has a</text>
<text text-anchor="middle" x="50" y="-20.8" font-family="Times,serif" font-size="14.00">great idea!</text>
</g>
<!-- stageA&#45;&gt;stageAdesc -->
<g id="edge1" class="edge"><title>stageA&#45;&gt;stageAdesc</title>
<path fill="none" stroke="black" stroke-dasharray="5,2" d="M50,-67.5337C50,-61.7256 50,-55.9175 50,-50.1094"/>
</g>
<!-- stage0 -->
<g id="node3" class="node"><title>stage0</title>
<ellipse fill="none" stroke="black" cx="191" cy="-93" rx="51.4062" ry="25.4118"/>
<text text-anchor="middle" x="191" y="-95.8" font-family="Times,serif" font-size="14.00">Stage 0</text>
<text text-anchor="middle" x="191" y="-81.8" font-family="Times,serif" font-size="14.00">Strawman</text>
</g>
<!-- stageA&#45;&gt;stage0 -->
<g id="edge7" class="edge"><title>stageA&#45;&gt;stage0</title>
<path fill="none" stroke="black" stroke-dasharray="5,2" d="M94.2185,-93C105.314,-93 117.457,-93 129.257,-93"/>
<polygon fill="black" stroke="black" points="129.505,-96.5001 139.505,-93 129.504,-89.5001 129.505,-96.5001"/>
</g>
<!-- stage0desc -->
<g id="node4" class="node"><title>stage0desc</title>
<polygon fill="none" stroke="black" points="246.09,-50 135.91,-50 135.91,-14 246.09,-14 246.09,-50"/>
<text text-anchor="middle" x="191" y="-34.8" font-family="Times,serif" font-size="14.00">Idea is discussed</text>
<text text-anchor="middle" x="191" y="-20.8" font-family="Times,serif" font-size="14.00">at TC39 meeting</text>
</g>
<!-- stage0&#45;&gt;stage0desc -->
<g id="edge2" class="edge"><title>stage0&#45;&gt;stage0desc</title>
<path fill="none" stroke="black" d="M191,-67.5337C191,-61.7256 191,-55.9175 191,-50.1094"/>
</g>
<!-- stage1 -->
<g id="node5" class="node"><title>stage1</title>
<ellipse fill="none" stroke="black" cx="352" cy="-93" rx="45.9239" ry="25.4118"/>
<text text-anchor="middle" x="352" y="-95.8" font-family="Times,serif" font-size="14.00">Stage 1</text>
<text text-anchor="middle" x="352" y="-81.8" font-family="Times,serif" font-size="14.00">Proposal</text>
</g>
<!-- stage0&#45;&gt;stage1 -->
<g id="edge8" class="edge"><title>stage0&#45;&gt;stage1</title>
<path fill="none" stroke="black" d="M242.746,-93C259.529,-93 278.289,-93 295.416,-93"/>
<polygon fill="black" stroke="black" points="295.837,-96.5001 305.837,-93 295.837,-89.5001 295.837,-96.5001"/>
</g>
<!-- stage1desc -->
<g id="node6" class="node"><title>stage1desc</title>
<polygon fill="none" stroke="black" points="422.422,-50 281.578,-50 281.578,-0 422.422,-0 422.422,-50"/>
<text text-anchor="middle" x="352" y="-34.8" font-family="Times,serif" font-size="14.00">Gets a champion.</text>
<text text-anchor="middle" x="352" y="-20.8" font-family="Times,serif" font-size="14.00">Thorough description.</text>
<text text-anchor="middle" x="352" y="-6.8" font-family="Times,serif" font-size="14.00">Demos and polyfills.</text>
</g>
<!-- stage1&#45;&gt;stage1desc -->
<g id="edge3" class="edge"><title>stage1&#45;&gt;stage1desc</title>
<path fill="none" stroke="black" d="M352,-67.6079C352,-61.8167 352,-56.0256 352,-50.2344"/>
</g>
<!-- stage2 -->
<g id="node7" class="node"><title>stage2</title>
<ellipse fill="none" stroke="black" cx="521" cy="-93" rx="40.965" ry="25.4118"/>
<text text-anchor="middle" x="521" y="-95.8" font-family="Times,serif" font-size="14.00">Stage 2</text>
<text text-anchor="middle" x="521" y="-81.8" font-family="Times,serif" font-size="14.00">Draft</text>
</g>
<!-- stage1&#45;&gt;stage2 -->
<g id="edge9" class="edge"><title>stage1&#45;&gt;stage2</title>
<path fill="none" stroke="black" d="M398.193,-93C420.391,-93 447.201,-93 470.011,-93"/>
<polygon fill="black" stroke="black" points="470.179,-96.5001 480.179,-93 470.179,-89.5001 470.179,-96.5001"/>
</g>
<!-- stage2desc -->
<g id="node8" class="node"><title>stage2desc</title>
<polygon fill="none" stroke="black" points="583.649,-50 458.351,-50 458.351,-14 583.649,-14 583.649,-50"/>
<text text-anchor="middle" x="521" y="-34.8" font-family="Times,serif" font-size="14.00">Formal description.</text>
<text text-anchor="middle" x="521" y="-20.8" font-family="Times,serif" font-size="14.00">Implementations.</text>
</g>
<!-- stage2&#45;&gt;stage2desc -->
<g id="edge4" class="edge"><title>stage2&#45;&gt;stage2desc</title>
<path fill="none" stroke="black" d="M521,-67.5337C521,-61.7256 521,-55.9175 521,-50.1094"/>
</g>
<!-- stage3 -->
<g id="node9" class="node"><title>stage3</title>
<ellipse fill="none" stroke="black" cx="673" cy="-93" rx="51.3965" ry="25.4118"/>
<text text-anchor="middle" x="673" y="-95.8" font-family="Times,serif" font-size="14.00">Stage 3</text>
<text text-anchor="middle" x="673" y="-81.8" font-family="Times,serif" font-size="14.00">Candidate</text>
</g>
<!-- stage2&#45;&gt;stage3 -->
<g id="edge10" class="edge"><title>stage2&#45;&gt;stage3</title>
<path fill="none" stroke="black" d="M561.803,-93C576.969,-93 594.618,-93 611.289,-93"/>
<polygon fill="black" stroke="black" points="611.512,-96.5001 621.512,-93 611.512,-89.5001 611.512,-96.5001"/>
</g>
<!-- stage3desc -->
<g id="node10" class="node"><title>stage3desc</title>
<polygon fill="none" stroke="black" points="725.524,-50 620.476,-50 620.476,-14 725.524,-14 725.524,-50"/>
<text text-anchor="middle" x="673" y="-27.8" font-family="Times,serif" font-size="14.00">Spec completed</text>
</g>
<!-- stage3&#45;&gt;stage3desc -->
<g id="edge5" class="edge"><title>stage3&#45;&gt;stage3desc</title>
<path fill="none" stroke="black" d="M673,-67.5337C673,-61.7256 673,-55.9175 673,-50.1094"/>
</g>
<!-- stage4 -->
<g id="node11" class="node"><title>stage4</title>
<ellipse fill="none" stroke="black" cx="817" cy="-93" rx="45.3316" ry="25.4118"/>
<text text-anchor="middle" x="817" y="-95.8" font-family="Times,serif" font-size="14.00">Stage 4</text>
<text text-anchor="middle" x="817" y="-81.8" font-family="Times,serif" font-size="14.00">Finished</text>
</g>
<!-- stage3&#45;&gt;stage4 -->
<g id="edge11" class="edge"><title>stage3&#45;&gt;stage4</title>
<path fill="none" stroke="black" d="M724.464,-93C736.421,-93 749.229,-93 761.362,-93"/>
<polygon fill="black" stroke="black" points="761.363,-96.5001 771.363,-93 761.363,-89.5001 761.363,-96.5001"/>
</g>
<!-- stage4desc -->
<g id="node12" class="node"><title>stage4desc</title>
<polygon fill="none" stroke="black" points="871.25,-50 762.75,-50 762.75,-14 871.25,-14 871.25,-50"/>
<text text-anchor="middle" x="817" y="-34.8" font-family="Times,serif" font-size="14.00">Will be included</text>
<text text-anchor="middle" x="817" y="-20.8" font-family="Times,serif" font-size="14.00">in next release</text>
</g>
<!-- stage4&#45;&gt;stage4desc -->
<g id="edge6" class="edge"><title>stage4&#45;&gt;stage4desc</title>
<path fill="none" stroke="black" d="M817,-67.5337C817,-61.7256 817,-55.9175 817,-50.1094"/>
</g>
</g>
</svg>
