<?xml version="1.0" encoding="UTF-8" standalone="no"?>
<!DOCTYPE svg PUBLIC "-//W3C//DTD SVG 1.1//EN"
 "http://www.w3.org/Graphics/SVG/1.1/DTD/svg11.dtd">
<!-- Generated by graphviz version 2.36.0 (20140111.2315)
 -->
<!-- Title: %3 Pages: 1 -->
<svg width="326pt" height="58pt"
 viewBox="0.00 0.00 326.00 58.00" xmlns="http://www.w3.org/2000/svg" xmlns:xlink="http://www.w3.org/1999/xlink">
<g id="graph0" class="graph" transform="scale(1 1) rotate(0) translate(4 54)">
<title>%3</title>
<!-- compiler -->
<g id="node1" class="node"><title>compiler</title>
<polygon fill="none" stroke="black" points="189.759,-43 124.241,-43 124.241,-7 189.759,-7 189.759,-43"/>
<text text-anchor="middle" x="157" y="-20.8" font-family="Times,serif" font-size="14.00">compiler</text>
</g>
<!-- tempfunc -->
<g id="node3" class="node"><title>tempfunc</title>
<ellipse fill="none" stroke="black" cx="272" cy="-25" rx="45.293" ry="25.4118"/>
<text text-anchor="middle" x="272" y="-27.8" font-family="Times,serif" font-size="14.00">template</text>
<text text-anchor="middle" x="272" y="-13.8" font-family="Times,serif" font-size="14.00">function</text>
</g>
<!-- compiler&#45;&gt;tempfunc -->
<g id="edge2" class="edge"><title>compiler&#45;&gt;tempfunc</title>
<path fill="none" stroke="black" d="M189.778,-25C198.03,-25 207.159,-25 216.229,-25"/>
<polygon fill="black" stroke="black" points="216.394,-28.5001 226.394,-25 216.394,-21.5001 216.394,-28.5001"/>
</g>
<!-- definition -->
<g id="node2" class="node"><title>definition</title>
<ellipse fill="none" stroke="black" cx="44" cy="-25" rx="44.0164" ry="18"/>
<text text-anchor="middle" x="44" y="-20.8" font-family="Times,serif" font-size="14.00">definition</text>
</g>
<!-- definition&#45;&gt;compiler -->
<g id="edge1" class="edge"><title>definition&#45;&gt;compiler</title>
<path fill="none" stroke="black" d="M88.2333,-25C96.7156,-25 105.6,-25 114.04,-25"/>
<polygon fill="black" stroke="black" points="114.057,-28.5001 124.057,-25 114.057,-21.5001 114.057,-28.5001"/>
</g>
</g>
</svg>
