<?xml version="1.0" encoding="UTF-8" standalone="no"?>
<!DOCTYPE svg PUBLIC "-//W3C//DTD SVG 1.1//EN"
 "http://www.w3.org/Graphics/SVG/1.1/DTD/svg11.dtd">
<!-- Generated by graphviz version 2.36.0 (20140111.2315)
 -->
<!-- Title: %3 Pages: 1 -->
<svg width="260pt" height="44pt"
 viewBox="0.00 0.00 260.00 44.00" xmlns="http://www.w3.org/2000/svg" xmlns:xlink="http://www.w3.org/1999/xlink">
<g id="graph0" class="graph" transform="scale(1 1) rotate(0) translate(4 40)">
<title>%3</title>
<!-- tempfunc -->
<g id="node1" class="node"><title>tempfunc</title>
<polygon fill="none" stroke="black" points="154.201,-36 89.7995,-36 89.7995,-0 154.201,-0 154.201,-36"/>
<text text-anchor="middle" x="122" y="-20.8" font-family="Times,serif" font-size="14.00">template</text>
<text text-anchor="middle" x="122" y="-6.8" font-family="Times,serif" font-size="14.00">function</text>
</g>
<!-- DOM -->
<g id="node3" class="node"><title>DOM</title>
<ellipse fill="none" stroke="black" cx="221" cy="-18" rx="30.988" ry="18"/>
<text text-anchor="middle" x="221" y="-13.8" font-family="Times,serif" font-size="14.00">DOM</text>
</g>
<!-- tempfunc&#45;&gt;DOM -->
<g id="edge2" class="edge"><title>tempfunc&#45;&gt;DOM</title>
<path fill="none" stroke="black" d="M154.225,-18C162.415,-18 171.361,-18 179.943,-18"/>
<polygon fill="black" stroke="black" points="180.155,-21.5001 190.155,-18 180.155,-14.5001 180.155,-21.5001"/>
</g>
<!-- data -->
<g id="node2" class="node"><title>data</title>
<ellipse fill="none" stroke="black" cx="27" cy="-18" rx="27" ry="18"/>
<text text-anchor="middle" x="27" y="-13.8" font-family="Times,serif" font-size="14.00">data</text>
</g>
<!-- data&#45;&gt;tempfunc -->
<g id="edge1" class="edge"><title>data&#45;&gt;tempfunc</title>
<path fill="none" stroke="black" d="M54.4013,-18C62.1896,-18 70.9094,-18 79.4081,-18"/>
<polygon fill="black" stroke="black" points="79.5874,-21.5001 89.5874,-18 79.5874,-14.5001 79.5874,-21.5001"/>
</g>
</g>
</svg>
