<?xml version="1.0" encoding="UTF-8" standalone="no"?>
<!DOCTYPE svg PUBLIC "-//W3C//DTD SVG 1.1//EN"
 "http://www.w3.org/Graphics/SVG/1.1/DTD/svg11.dtd">
<!-- Generated by graphviz version 2.36.0 (20140111.2315)
 -->
<!-- Title: %3 Pages: 1 -->
<svg width="244pt" height="116pt"
 viewBox="0.00 0.00 244.00 116.00" xmlns="http://www.w3.org/2000/svg" xmlns:xlink="http://www.w3.org/1999/xlink">
<g id="graph0" class="graph" transform="scale(1 1) rotate(0) translate(4 112)">
<title>%3</title>
<!-- frontend -->
<g id="node1" class="node"><title>frontend</title>
<ellipse fill="none" stroke="black" cx="40" cy="-90" rx="40.1317" ry="18"/>
<text text-anchor="middle" x="40" y="-85.8" font-family="Times,serif" font-size="14.00">frontend</text>
</g>
<!-- backend -->
<g id="node2" class="node"><title>backend</title>
<ellipse fill="none" stroke="black" cx="196" cy="-90" rx="39.6385" ry="18"/>
<text text-anchor="middle" x="196" y="-85.8" font-family="Times,serif" font-size="14.00">backend</text>
</g>
<!-- frontend&#45;&gt;backend -->
<g id="edge1" class="edge"><title>frontend&#45;&gt;backend</title>
<path fill="none" stroke="black" d="M80.2592,-90C100.324,-90 124.931,-90 146.205,-90"/>
<polygon fill="black" stroke="black" points="146.346,-93.5001 156.346,-90 146.346,-86.5001 146.346,-93.5001"/>
<text text-anchor="middle" x="118" y="-92.8" font-family="Times,serif" font-size="14.00">queries</text>
</g>
<!-- frontstuff -->
<g id="node3" class="node"><title>frontstuff</title>
<polygon fill="none" stroke="black" points="72.766,-36 7.23396,-36 7.23396,-0 72.766,-0 72.766,-36"/>
<text text-anchor="middle" x="40" y="-13.8" font-family="Times,serif" font-size="14.00">UI, logic</text>
</g>
<!-- frontend&#45;&gt;frontstuff -->
<g id="edge2" class="edge"><title>frontend&#45;&gt;frontstuff</title>
<path fill="none" stroke="black" d="M40,-71.9539C40,-60.063 40,-48.1721 40,-36.2812"/>
</g>
<!-- backstuff -->
<g id="node4" class="node"><title>backstuff</title>
<polygon fill="none" stroke="black" points="228.194,-36 163.806,-36 163.806,-0 228.194,-0 228.194,-36"/>
<text text-anchor="middle" x="196" y="-13.8" font-family="Times,serif" font-size="14.00">database</text>
</g>
<!-- backend&#45;&gt;backstuff -->
<g id="edge3" class="edge"><title>backend&#45;&gt;backstuff</title>
<path fill="none" stroke="black" d="M196,-71.9539C196,-60.063 196,-48.1721 196,-36.2812"/>
</g>
</g>
</svg>
