<?xml version="1.0" encoding="UTF-8" standalone="no"?>
<!DOCTYPE svg PUBLIC "-//W3C//DTD SVG 1.1//EN"
 "http://www.w3.org/Graphics/SVG/1.1/DTD/svg11.dtd">
<!-- Generated by graphviz version 2.36.0 (20140111.2315)
 -->
<!-- Title: %3 Pages: 1 -->
<svg width="276pt" height="116pt"
 viewBox="0.00 0.00 276.00 116.00" xmlns="http://www.w3.org/2000/svg" xmlns:xlink="http://www.w3.org/1999/xlink">
<g id="graph0" class="graph" transform="scale(1 1) rotate(0) translate(4 112)">
<title>%3</title>
<!-- frontend -->
<g id="node1" class="node"><title>frontend</title>
<ellipse fill="none" stroke="black" cx="40" cy="-90" rx="40.1317" ry="18"/>
<text text-anchor="middle" x="40" y="-85.8" font-family="Times,serif" font-size="14.00">frontend</text>
</g>
<!-- backend -->
<g id="node2" class="node"><title>backend</title>
<ellipse fill="none" stroke="black" cx="219" cy="-90" rx="39.6385" ry="18"/>
<text text-anchor="middle" x="219" y="-85.8" font-family="Times,serif" font-size="14.00">backend</text>
</g>
<!-- frontend&#45;&gt;backend -->
<g id="edge1" class="edge"><title>frontend&#45;&gt;backend</title>
<path fill="none" stroke="black" d="M90.2942,-90C118.356,-90 153.008,-90 179.133,-90"/>
<polygon fill="black" stroke="black" points="90.2821,-86.5001 80.282,-90 90.282,-93.5001 90.2821,-86.5001"/>
<text text-anchor="middle" x="125" y="-92.8" font-family="Times,serif" font-size="14.00">generates</text>
</g>
<!-- frontstuff -->
<g id="node3" class="node"><title>frontstuff</title>
<polygon fill="none" stroke="black" points="67,-36 13,-36 13,-0 67,-0 67,-36"/>
<text text-anchor="middle" x="40" y="-13.8" font-family="Times,serif" font-size="14.00">UI</text>
</g>
<!-- frontend&#45;&gt;frontstuff -->
<g id="edge2" class="edge"><title>frontend&#45;&gt;frontstuff</title>
<path fill="none" stroke="black" d="M40,-71.9539C40,-60.063 40,-48.1721 40,-36.2812"/>
</g>
<!-- backstuff -->
<g id="node4" class="node"><title>backstuff</title>
<polygon fill="none" stroke="black" points="268.442,-36 169.558,-36 169.558,-0 268.442,-0 268.442,-36"/>
<text text-anchor="middle" x="219" y="-20.8" font-family="Times,serif" font-size="14.00">business logic,</text>
<text text-anchor="middle" x="219" y="-6.8" font-family="Times,serif" font-size="14.00">database</text>
</g>
<!-- backend&#45;&gt;backstuff -->
<g id="edge3" class="edge"><title>backend&#45;&gt;backstuff</title>
<path fill="none" stroke="black" d="M219,-71.9539C219,-60.063 219,-48.1721 219,-36.2812"/>
</g>
</g>
</svg>
