<?xml version="1.0" encoding="UTF-8" standalone="no"?>
<!DOCTYPE svg PUBLIC "-//W3C//DTD SVG 1.1//EN"
 "http://www.w3.org/Graphics/SVG/1.1/DTD/svg11.dtd">
<!-- Generated by graphviz version 2.36.0 (20140111.2315)
 -->
<!-- Title: %3 Pages: 1 -->
<svg width="334pt" height="201pt"
 viewBox="0.00 0.00 334.00 200.82" xmlns="http://www.w3.org/2000/svg" xmlns:xlink="http://www.w3.org/1999/xlink">
<g id="graph0" class="graph" transform="scale(1 1) rotate(0) translate(4 196.817)">
<title>%3</title>
<!-- webapp -->
<g id="node1" class="node"><title>webapp</title>
<ellipse fill="none" stroke="black" cx="40" cy="-120.817" rx="39.6401" ry="18"/>
<text text-anchor="middle" x="40" y="-116.617" font-family="Times,serif" font-size="14.00">web app</text>
</g>
<!-- compiler -->
<g id="node2" class="node"><title>compiler</title>
<polygon fill="none" stroke="red" points="72.7592,-51.8166 7.24077,-51.8166 7.24077,-15.8166 72.7592,-15.8166 72.7592,-51.8166"/>
<text text-anchor="middle" x="40" y="-29.6166" font-family="Times,serif" font-size="14.00" fill="red">compiler</text>
</g>
<!-- webapp&#45;&gt;compiler -->
<g id="edge1" class="edge"><title>webapp&#45;&gt;compiler</title>
<path fill="none" stroke="red" d="M40,-102.761C40,-89.2321 40,-75.7031 40,-62.174"/>
<polygon fill="red" stroke="red" points="43.5001,-61.8283 40,-51.8283 36.5001,-61.8284 43.5001,-61.8283"/>
</g>
<!-- browser -->
<g id="node5" class="node"><title>browser</title>
<ellipse fill="none" stroke="black" cx="274" cy="-174.817" rx="38.6869" ry="18"/>
<text text-anchor="middle" x="274" y="-170.617" font-family="Times,serif" font-size="14.00">browser</text>
</g>
<!-- webapp&#45;&gt;browser -->
<g id="edge4" class="edge"><title>webapp&#45;&gt;browser</title>
<path fill="none" stroke="black" d="M70.1887,-132.672C83.9141,-137.896 100.612,-143.757 116,-147.817 152.52,-157.451 194.754,-164.49 226.213,-168.96"/>
<polygon fill="black" stroke="black" points="226.059,-172.473 236.445,-170.378 227.02,-165.539 226.059,-172.473"/>
</g>
<!-- phonegap -->
<g id="node6" class="node"><title>phonegap</title>
<polygon fill="none" stroke="black" points="186.429,-138.817 115.571,-138.817 115.571,-102.817 186.429,-102.817 186.429,-138.817"/>
<text text-anchor="middle" x="151" y="-116.617" font-family="Times,serif" font-size="14.00">phonegap</text>
</g>
<!-- webapp&#45;&gt;phonegap -->
<g id="edge5" class="edge"><title>webapp&#45;&gt;phonegap</title>
<path fill="none" stroke="black" d="M80.0436,-120.817C88.2951,-120.817 97.0619,-120.817 105.498,-120.817"/>
<polygon fill="black" stroke="black" points="105.567,-124.317 115.567,-120.817 105.567,-117.317 105.567,-124.317"/>
</g>
<!-- electron -->
<g id="node7" class="node"><title>electron</title>
<polygon fill="none" stroke="black" points="181.583,-84.8166 120.417,-84.8166 120.417,-48.8166 181.583,-48.8166 181.583,-84.8166"/>
<text text-anchor="middle" x="151" y="-62.6166" font-family="Times,serif" font-size="14.00">electron</text>
</g>
<!-- webapp&#45;&gt;electron -->
<g id="edge7" class="edge"><title>webapp&#45;&gt;electron</title>
<path fill="none" stroke="black" d="M67.3859,-107.745C80.5137,-101.241 96.6384,-93.2526 111.147,-86.065"/>
<polygon fill="black" stroke="black" points="112.993,-89.0565 120.4,-81.481 109.885,-82.784 112.993,-89.0565"/>
</g>
<!-- smartphone -->
<g id="node3" class="node"><title>smartphone</title>
<ellipse fill="none" stroke="black" cx="274" cy="-120.817" rx="51.2329" ry="18"/>
<text text-anchor="middle" x="274" y="-116.617" font-family="Times,serif" font-size="14.00">smartphone</text>
</g>
<!-- compiler&#45;&gt;smartphone -->
<g id="edge2" class="edge"><title>compiler:e&#45;&gt;smartphone</title>
<path fill="none" stroke="red" d="M74,-33.8166C123.849,-33.8166 142.694,-15.1273 186,-39.8166 211.058,-54.1027 200.599,-74.4772 222,-93.8166 225.136,-96.6504 228.623,-99.2834 232.261,-101.705"/>
<polygon fill="red" stroke="red" points="230.563,-104.769 240.928,-106.966 234.196,-98.7849 230.563,-104.769"/>
</g>
<!-- desktop -->
<g id="node4" class="node"><title>desktop</title>
<ellipse fill="none" stroke="black" cx="274" cy="-66.8166" rx="37.7352" ry="18"/>
<text text-anchor="middle" x="274" y="-62.6166" font-family="Times,serif" font-size="14.00">desktop</text>
</g>
<!-- compiler&#45;&gt;desktop -->
<g id="edge3" class="edge"><title>compiler:e&#45;&gt;desktop</title>
<path fill="none" stroke="red" d="M74,-33.8166C96.1911,-33.8166 94.7082,-13.07 116,-6.8166 145.85,1.95048 156.296,2.43306 186,-6.8166 209.421,-14.1097 232.107,-30.1497 248.439,-43.8114"/>
<polygon fill="red" stroke="red" points="246.519,-46.7792 256.37,-50.6799 251.102,-41.4876 246.519,-46.7792"/>
</g>
<!-- phonegap&#45;&gt;smartphone -->
<g id="edge6" class="edge"><title>phonegap&#45;&gt;smartphone</title>
<path fill="none" stroke="black" d="M186.35,-120.817C194.472,-120.817 203.373,-120.817 212.281,-120.817"/>
<polygon fill="black" stroke="black" points="212.299,-124.317 222.299,-120.817 212.299,-117.317 212.299,-124.317"/>
</g>
<!-- electron&#45;&gt;desktop -->
<g id="edge8" class="edge"><title>electron&#45;&gt;desktop</title>
<path fill="none" stroke="black" d="M181.6,-66.8166C195.016,-66.8166 211.202,-66.8166 226.203,-66.8166"/>
<polygon fill="black" stroke="black" points="226.35,-70.3167 236.35,-66.8166 226.35,-63.3167 226.35,-70.3167"/>
</g>
</g>
</svg>
