<?xml version="1.0" encoding="UTF-8" standalone="no"?>
<!DOCTYPE svg PUBLIC "-//W3C//DTD SVG 1.1//EN"
 "http://www.w3.org/Graphics/SVG/1.1/DTD/svg11.dtd">
<!-- Generated by graphviz version 2.36.0 (20140111.2315)
 -->
<!-- Title: %3 Pages: 1 -->
<svg width="334pt" height="152pt"
 viewBox="0.00 0.00 334.00 152.00" xmlns="http://www.w3.org/2000/svg" xmlns:xlink="http://www.w3.org/1999/xlink">
<g id="graph0" class="graph" transform="scale(1 1) rotate(0) translate(4 148)">
<title>%3</title>
<!-- webapp -->
<g id="node1" class="node"><title>webapp</title>
<ellipse fill="none" stroke="black" cx="40" cy="-72" rx="39.6401" ry="18"/>
<text text-anchor="middle" x="40" y="-67.8" font-family="Times,serif" font-size="14.00">web app</text>
</g>
<!-- browser -->
<g id="node2" class="node"><title>browser</title>
<ellipse fill="none" stroke="black" cx="274" cy="-126" rx="38.6869" ry="18"/>
<text text-anchor="middle" x="274" y="-121.8" font-family="Times,serif" font-size="14.00">browser</text>
</g>
<!-- webapp&#45;&gt;browser -->
<g id="edge1" class="edge"><title>webapp&#45;&gt;browser</title>
<path fill="none" stroke="black" d="M70.1887,-83.8551C83.9141,-89.0796 100.612,-94.9404 116,-99 152.52,-108.634 194.754,-115.673 226.213,-120.144"/>
<polygon fill="black" stroke="black" points="226.059,-123.656 236.445,-121.562 227.02,-116.722 226.059,-123.656"/>
</g>
<!-- phonegap -->
<g id="node3" class="node"><title>phonegap</title>
<polygon fill="none" stroke="black" points="186.429,-90 115.571,-90 115.571,-54 186.429,-54 186.429,-90"/>
<text text-anchor="middle" x="151" y="-67.8" font-family="Times,serif" font-size="14.00">phonegap</text>
</g>
<!-- webapp&#45;&gt;phonegap -->
<g id="edge2" class="edge"><title>webapp&#45;&gt;phonegap</title>
<path fill="none" stroke="black" d="M80.0436,-72C88.2951,-72 97.0619,-72 105.498,-72"/>
<polygon fill="black" stroke="black" points="105.567,-75.5001 115.567,-72 105.567,-68.5001 105.567,-75.5001"/>
</g>
<!-- electron -->
<g id="node5" class="node"><title>electron</title>
<polygon fill="none" stroke="black" points="181.583,-36 120.417,-36 120.417,-0 181.583,-0 181.583,-36"/>
<text text-anchor="middle" x="151" y="-13.8" font-family="Times,serif" font-size="14.00">electron</text>
</g>
<!-- webapp&#45;&gt;electron -->
<g id="edge4" class="edge"><title>webapp&#45;&gt;electron</title>
<path fill="none" stroke="black" d="M67.3859,-58.9281C80.5137,-52.4244 96.6384,-44.436 111.147,-37.2484"/>
<polygon fill="black" stroke="black" points="112.993,-40.2399 120.4,-32.6644 109.885,-33.9674 112.993,-40.2399"/>
</g>
<!-- smartphone -->
<g id="node4" class="node"><title>smartphone</title>
<ellipse fill="none" stroke="black" cx="274" cy="-72" rx="51.2329" ry="18"/>
<text text-anchor="middle" x="274" y="-67.8" font-family="Times,serif" font-size="14.00">smartphone</text>
</g>
<!-- phonegap&#45;&gt;smartphone -->
<g id="edge3" class="edge"><title>phonegap&#45;&gt;smartphone</title>
<path fill="none" stroke="black" d="M186.35,-72C194.472,-72 203.373,-72 212.281,-72"/>
<polygon fill="black" stroke="black" points="212.299,-75.5001 222.299,-72 212.299,-68.5001 212.299,-75.5001"/>
</g>
<!-- desktop -->
<g id="node6" class="node"><title>desktop</title>
<ellipse fill="none" stroke="black" cx="274" cy="-18" rx="37.7352" ry="18"/>
<text text-anchor="middle" x="274" y="-13.8" font-family="Times,serif" font-size="14.00">desktop</text>
</g>
<!-- electron&#45;&gt;desktop -->
<g id="edge5" class="edge"><title>electron&#45;&gt;desktop</title>
<path fill="none" stroke="black" d="M181.6,-18C195.016,-18 211.202,-18 226.203,-18"/>
<polygon fill="black" stroke="black" points="226.35,-21.5001 236.35,-18 226.35,-14.5001 226.35,-21.5001"/>
</g>
</g>
</svg>
